<?xml version="1.0" encoding="UTF-8" standalone="no"?>
<!-- Created with Inkscape (http://www.inkscape.org/) -->

<svg
   xmlns:dc="http://purl.org/dc/elements/1.1/"
   xmlns:cc="http://creativecommons.org/ns#"
   xmlns:rdf="http://www.w3.org/1999/02/22-rdf-syntax-ns#"
   xmlns:svg="http://www.w3.org/2000/svg"
   xmlns="http://www.w3.org/2000/svg"
   xmlns:sodipodi="http://sodipodi.sourceforge.net/DTD/sodipodi-0.dtd"
   xmlns:inkscape="http://www.inkscape.org/namespaces/inkscape"
   id="svg2"
   version="1.1"
   inkscape:version="0.48.5 r10040"
   width="2017.1123"
   height="527.52228"
   sodipodi:docname="logo.svg.png">
  <metadata
     id="metadata8">
    <rdf:RDF>
      <cc:Work
         rdf:about="">
        <dc:format>image/svg+xml</dc:format>
        <dc:type
           rdf:resource="http://purl.org/dc/dcmitype/StillImage" />
        <dc:title></dc:title>
      </cc:Work>
    </rdf:RDF>
  </metadata>
  <defs
     id="defs6" />
  <sodipodi:namedview
     pagecolor="#ffffff"
     bordercolor="#666666"
     borderopacity="1"
     objecttolerance="10"
     gridtolerance="10"
     guidetolerance="10"
     inkscape:pageopacity="0"
     inkscape:pageshadow="2"
     inkscape:window-width="1352"
     inkscape:window-height="825"
     id="namedview4"
     showgrid="false"
     fit-margin-top="0"
     fit-margin-left="0"
     fit-margin-right="0"
     fit-margin-bottom="0"
     inkscape:zoom="0.11492175"
     inkscape:cx="2528.6653"
     inkscape:cy="-1076.8353"
     inkscape:window-x="55"
     inkscape:window-y="24"
     inkscape:window-maximized="0"
     inkscape:current-layer="svg2" />
  <g
     id="g3966"
     transform="translate(1301.8621,718.20833)">
    <path
       inkscape:export-ydpi="90"
       inkscape:export-xdpi="90"
       inkscape:export-filename="/home/crep/bloc/images/logo.png"
       d="m -319.39301,-323.68605 0,-6 6,0 6,0 0,6 0,6 -6,0 -6,0 0,-6 z m -494.80765,6.16587 c -0.88019,-0.57562 -1.20708,-2.62211 -1,-6.26052 l 0.30765,-5.40535 5.5,0 5.5,0 0,6 0,6 -4.5,0.26052 c -2.475,0.14328 -5.08844,-0.12431 -5.80765,-0.59465 z m 499.80765,59.33413 0,-33.5 -4.5,0 c -4.4762,0 -4.5,-0.0185 -4.5,-3.5 l 0,-3.5 9,0 9,0 0,37 0,37 -4.5,0 -4.5,0 0,-33.5 z m -210,-3.5 0,-37 3.88337,0 c 4.3324,0 5.07782,1.22541 5.10298,8.38884 l 0.0136,3.88883 4.25,-4.51785 c 7.67341,-8.15703 17.968,-11.34638 28.48225,-8.82405 6.94568,1.66624 11.66156,5.87799 14.37003,12.83387 2.07351,5.32516 2.26276,7.72792 2.67639,33.98036 l 0.44511,28.25 -5.11189,0 -5.11189,0 -0.006,-26.25 c -0.003,-15.34432 -0.44435,-27.8301 -1.06172,-30.0533 -0.58088,-2.09182 -2.34145,-5.24182 -3.91239,-7 -2.76174,-3.09093 -3.12082,-3.1967 -10.85214,-3.1967 -7.29197,0 -8.37762,0.26781 -12.33203,3.04208 -3.09354,2.17032 -5.33913,5.00599 -7.83614,9.89525 l -3.5,6.85317 -0.33056,23.35475 -0.33057,23.35475 -4.41943,0 -4.41944,0 0,-37 z m -109,0 0,-37 4,0 4,0 0,5.5 c 0,3.025 0.3375,5.49999 0.75,5.49997 0.4125,-2e-5 1.96657,-1.52474 3.45349,-3.38828 3.69539,-4.63139 10.19978,-7.61169 16.61223,-7.61169 l 5.18428,0 -0.007,4.25 -0.007,4.25 -5.13017,0.25084 c -9.16857,0.4483 -16.36679,6.22979 -18.83945,15.13153 -0.55268,1.9897 -1.00739,14.08013 -1.01045,26.86763 l -0.006,23.25 -4.5,0 -4.5,0 0,-37 z m -39,4 0,-33 -6.5,0 -6.5,0 0,-4 0,-4 6.5,0 6.5,0 0,-5.7899 c 0,-6.62538 2.21783,-16.08672 4.63598,-19.77729 0.90626,-1.38313 3.72141,-3.73383 6.25588,-5.22379 4.10481,-2.41312 5.60923,-2.70902 13.77347,-2.70902 5.04093,0 9.39398,0.22805 9.67344,0.50678 0.27947,0.27873 0.191,2.0573 -0.19658,3.95237 l -0.7047,3.4456 -7.51139,0.0476 c -12.18295,0.0772 -16.05175,4.36099 -16.29943,18.04762 l -0.12667,7 10.25,0.28498 10.25,0.28499 0,3.96501 0,3.96502 -10.5,0 -10.5,0 0,33 0,33 -4.5,0 -4.5,0 0,-33 z m -110,-4 0,-37 3.89301,0 c 4.47644,0 5.10699,0.95324 5.10699,7.72062 l 0,4.55705 4.28277,-4.59897 c 6.08857,-6.53811 12.3437,-9.1606 21.71723,-9.10504 11.79099,0.0699 17.65556,4.0213 21.68415,14.61027 1.33692,3.51403 1.72371,9.56568 2.08144,32.56607 l 0.43937,28.25 -5.04536,0 -5.04536,0 -0.30712,-28.25 c -0.3408,-31.34759 -0.61581,-32.77378 -7.10567,-36.84851 -4.82838,-3.03156 -13.9342,-2.28063 -20.34563,1.67785 -3.88899,2.4011 -5.5527,4.36322 -8.35582,9.8546 l -3.5,6.85656 -0.33056,23.35475 -0.33057,23.35475 -4.41943,0 -4.41944,0 0,-37 z m -28,4 0,-33 -4.5,0 -4.5,0 0,-4 0,-4 9,0 9,0 0,37 0,37 -4.5,0 -4.5,0 0,-33 z m 524.5,32.64694 c -2.75,-0.63859 -4.8875,-1.49539 -4.75,-1.904 0.1375,-0.40862 0.25,-1.55693 0.25,-2.55181 0,-0.99488 0.5625,-2.53314 1.25,-3.41837 1.1232,-1.44623 1.9094,-1.46773 7.75,-0.21197 12.1519,2.61272 19.836,1.44931 25.6561,-3.88447 6.4138,-5.87777 5.0886,-15.56199 -2.7143,-19.83582 -1.893,-1.03683 -7.4557,-3.29532 -12.3616,-5.01885 -11.2462,-3.951 -16.0143,-7.95575 -17.4516,-14.65777 -2.1028,-9.80504 2.5318,-18.49329 11.8714,-22.2544 4.3609,-1.75618 22.7556,-1.81557 28.6651,-0.0925 l 4.165,1.21442 -1.0196,3.73432 c -0.5608,2.05388 -1.0888,3.81304 -1.1733,3.90924 -0.085,0.0962 -2.85,-0.45926 -6.1454,-1.23437 -16.2835,-3.82995 -27.4918,0.36416 -27.4918,10.28729 0,5.87038 3.6047,8.57525 17.8408,13.38737 12.6133,4.26357 17.6644,8.77632 19.2245,17.17558 2.0369,10.9663 -4.8663,21.7971 -15.9968,25.0983 -6.3095,1.87133 -20.0662,2 -27.5685,0.25786 z m -63.25,-7.28879 3.75,-0.61983 0,-14.22243 0,-14.22242 -7.45211,-0.62993 c -13.14671,-1.11131 -23.94967,2.44868 -27.01167,8.90137 -4.04543,8.52513 -0.43056,17.75464 7.96378,20.33319 3.50414,1.07638 17.32973,1.35597 22.75,0.46005 z m -25.92582,7.20236 c -10.84723,-3.39173 -15.34037,-9.44814 -15.30222,-20.62623 0.0272,-7.97567 2.36545,-13.45944 7.56721,-17.74717 6.18818,-5.10082 12.15753,-6.60061 25.66083,-6.44727 l 11.75,0.13344 0,-5.12092 c 0,-6.45219 -2.93067,-12.68948 -7.12704,-15.16833 -4.27646,-2.52617 -14.66481,-3.11864 -23.21262,-1.32386 -7.34081,1.54134 -7.36444,1.53033 -7.87486,-3.66713 -0.24165,-2.4607 0.17506,-3.05186 2.71452,-3.85086 1.65,-0.51915 8.4,-1.01101 15,-1.09304 14.00971,-0.17412 19.58104,1.40125 24.4113,6.90264 4.732,5.38938 5.1451,8.71825 4.8547,39.11437 l -0.266,27.83385 -7.5,1.18724 c -9.9072,1.5683 -25.46037,1.50404 -30.67582,-0.12673 z m -176.33824,-8.14645 c 0.68867,-0.68867 0.97386,-5.89305 0.79427,-14.49427 l -0.28021,-13.41979 -7,-0.62694 c -17.57835,-1.57436 -28.00371,3.54424 -29.22134,14.34699 -0.76613,6.79708 2.64201,12.20166 9.22134,14.62307 3.76653,1.38621 25.01488,1.042 26.48594,-0.42906 z m -30.80333,7.68415 c -10.18223,-3.5167 -14.92278,-11.15924 -13.97926,-22.53684 0.6416,-7.73683 4.73502,-13.96729 11.79665,-17.95529 5.33114,-3.01072 5.94067,-3.1167 19.85323,-3.45204 l 14.35324,-0.34596 -0.67465,-5.65404 c -0.86273,-7.23025 -3.38396,-12.16151 -7.42521,-14.52287 -4.37404,-2.55583 -14.08332,-3.12832 -22.60661,-1.33296 -7.7838,1.63958 -8.70071,1.22531 -8.26052,-3.73229 0.34829,-3.92258 3.22527,-4.71833 17.76052,-4.91238 12.89685,-0.17219 17.28105,0.8983 22.52086,5.49892 6.4117,5.62955 6.97914,8.91001 6.97914,40.34754 l 0,28 -7.5,1.18724 c -11.67985,1.84891 -26.53037,1.58236 -32.81739,-0.58903 z m -335.68261,0.54337 c -1.65,-0.76262 -4.125,-2.60484 -5.5,-4.09382 l -2.5,-2.70724 -0.28546,-49.92026 -0.28547,-49.92026 4.50748,0 4.50747,0 0.27799,48.08892 0.27799,48.08892 2.36078,1.91108 c 1.65733,1.34163 3.93282,1.91108 7.6365,1.91108 5.1839,0 5.28434,0.0566 5.7707,3.25 0.27223,1.7875 0.29915,3.46165 0.0598,3.72034 -1.11587,1.20611 -14.05386,0.95334 -16.8278,-0.32876 z m -36.75,-7.75641 c 2.18002,-0.80968 2.25,-1.25299 2.25,-14.25343 0,-11.31275 -0.24815,-13.51299 -1.58179,-14.02475 -0.86998,-0.33385 -5.93248,-0.60259 -11.25,-0.59722 -15.66546,0.0158 -22.99608,4.55893 -23.87613,14.79707 -0.71061,8.26696 4.43837,13.84453 13.94708,15.10802 5.94265,0.78964 17.12368,0.22833 20.51084,-1.02969 z m -27.92363,8.13579 c -10.08063,-3.04324 -14.86844,-8.87673 -15.59262,-18.99814 -0.43574,-6.08991 -0.16705,-7.63886 2.14466,-12.36382 4.96233,-10.14264 13.50602,-13.8165 31.62159,-13.59754 l 11.5,0.13901 -0.26528,-5.67002 c -0.6751,-14.4297 -9.8343,-19.60091 -28.73472,-16.2234 -8.85515,1.58241 -9.70074,1.23801 -9.26052,-3.77174 0.32945,-3.74907 3.15024,-4.50743 17.76052,-4.7748 16.21143,-0.29668 23.02101,2.73681 27.40113,12.20646 1.94546,4.20599 2.12053,6.5955 2.42662,33.12046 l 0.32989,28.58744 -8.32882,1.16384 c -9.35339,1.30701 -26.93435,1.41036 -31.00245,0.18225 z m -81.58476,-9.26451 c 5.6271,-2.36816 11.1222,-8.12587 13.9217,-14.58678 2.8768,-6.63957 3.4976,-18.05269 1.4234,-26.16967 -2.9757,-11.64477 -9.3415,-16.99569 -20.2225,-16.99845 -8.9946,-0.002 -15.6024,3.67772 -19.749,10.99845 l -3.1152,5.5 -0.3374,20.74786 c -0.3799,23.36938 -1.0817,21.39854 8.0959,22.73719 6.9666,1.01615 14.1865,0.21096 19.9831,-2.2286 z m -27.7416,9.55165 c -1.1,-0.25295 -3.6875,-0.89309 -5.75,-1.42254 l -3.75,-0.96265 0,-52.46145 0,-52.46146 4.5,0 4.5,0 0,21.62736 0,21.62736 4.5604,-4.20362 c 6.3826,-5.8833 10.4111,-7.3685 20.1081,-7.41333 7.1253,-0.0329 8.9006,0.33894 13.9017,2.91223 10.9244,5.62104 15.6283,15.14724 15.7764,31.95 0.1331,15.11217 -2.5555,22.89407 -10.7362,31.07481 -8.2288,8.2288 -14.8788,10.47905 -30.4657,10.30919 -5.8546,-0.0638 -11.5447,-0.32296 -12.6447,-0.5759 z m -111.2303,-0.79066 c -1.7767,-0.77236 -4.1375,-2.89225 -5.2463,-4.71086 -1.9491,-3.19687 -2.0161,-4.94022 -2.0197,-52.55655 l 0,-49.25003 4.5,0 4.5,0 0,46.95295 c 0,33.75314 0.3293,47.67573 1.1714,49.52397 1.257,2.75873 2.7955,3.34719 9.8286,3.75936 4.1465,0.243 4.5259,0.49086 4.8301,3.15521 0.1874,1.64233 -0.2446,3.25577 -1,3.73469 -2.1068,1.33557 -13.0098,0.93477 -16.5604,-0.60877 z m 49.631,1.45873 c -8.044,-0.95284 -13.7084,-3.70635 -17.7761,-8.64111 -5.8824,-7.13641 -6.4062,-10.14901 -6.8831,-39.58503 l -0.4333,-26.75 4.4974,0 4.4974,0 0.3746,25.75 c 0.3419,23.50413 0.5559,26.14248 2.4533,30.25 3.8736,8.38543 9.6162,11.28513 22.3691,11.29513 4.675,0.004 9.9625,-0.322 11.75,-0.72369 l 3.25,-0.73035 0,-32.92055 0,-32.92054 4.5,0 4.5,0 0,35.96146 0,35.96145 -3.75,0.98985 c -3.5292,0.93155 -9.5507,1.73744 -18.75,2.50942 -2.2,0.18461 -6.9697,-0.0161 -10.5993,-0.44604 z m -94.9007,0.0915 c -12.183,-1.66542 -20.8661,-7.92124 -25.5828,-18.4314 -3.3254,-7.41003 -4.4694,-22.01882 -2.4095,-30.76839 4.7201,-20.04848 20.1722,-29.66279 43.0766,-26.8023 4.6286,0.57807 8.7846,1.41618 9.2354,1.86247 0.4509,0.4463 0.5083,2.47204 0.1275,4.50166 -0.5152,2.74647 -1.0816,3.54084 -2.2144,3.10613 -3.4505,-1.32409 -15.4334,-2.47009 -19.7053,-1.88455 -6.9551,0.9533 -14.3093,5.89545 -17.6316,11.84871 -4.9087,8.79616 -5.8412,22.57599 -2.2283,32.93133 2.1387,6.12997 5.8171,10.16948 12.0271,13.20774 4.9727,2.43289 6.8168,2.78186 14.2583,2.69806 4.7009,-0.0529 9.8578,-0.61716 11.4598,-1.25384 3.3526,-1.33236 4.1229,-0.78883 5.0365,3.55385 0.647,3.07505 0.5649,3.15852 -4.1446,4.21685 -7.143,1.60515 -15.1176,2.05945 -21.3047,1.21368 z m 816.24999,32.27005 c -1.38774,-0.55997 -1.64926,-4.16104 -0.44039,-6.06391 0.58757,-0.92487 1.7122,-0.96852 4.57657,-0.17762 7.68112,2.12085 15.61382,-1.20157 15.61382,-6.53949 0,-3.84861 -3.47043,-5.5567 -11.28989,-5.5567 -7.74442,0 -7.44487,0.78324 -3.61047,-9.4404 1.01909,-2.71721 1.75108,-4.9905 1.62663,-5.05174 -0.12445,-0.0612 -2.75577,-0.88027 -5.84737,-1.82007 -7.71043,-2.34385 -13.80413,-7.90703 -17.39389,-15.87957 -2.39029,-5.30862 -2.91122,-7.9974 -3.28744,-16.96821 -0.37268,-8.88651 -0.0932,-11.8251 1.68014,-17.6633 5.58013,-18.37138 21.50181,-26.77114 44.0803,-23.25535 4.1019,0.63873 7.57553,1.27885 7.71918,1.42249 0.14364,0.14365 -0.0118,1.94334 -0.34545,3.99932 l -0.60662,3.73815 -4.61256,-0.79066 c -9.10384,-1.56053 -20.2561,-0.8986 -24.76583,1.46995 -9.0162,4.7354 -13.80734,14.34379 -13.832,27.73939 -0.0186,10.09893 1.77703,16.31259 6.21096,21.49263 5.71539,6.67715 10.17044,8.45348 21.27431,8.48252 5.225,0.0137 10.91003,-0.33688 12.6334,-0.779 2.90273,-0.74466 3.21473,-0.57056 4.23803,2.36487 0.60754,1.7428 0.88096,3.53061 0.6076,3.97291 -0.72362,1.17083 -9.85047,2.96607 -15.07928,2.96607 -4.19176,0 -4.6016,0.23884 -5.95078,3.46788 -1.94123,4.64603 -2.0066,4.53212 2.60069,4.53212 7.66174,0 12.95034,4.9005 12.95034,12 0,8.62602 -6.59868,12.99099 -19.5,12.89909 -4.4,-0.0313 -8.5625,-0.28396 -9.25,-0.56137 z m -420.927,-43.68113 c 9.71726,-5.69468 14.38231,-16.8701 13.42794,-32.16744 -1.04147,-16.69357 -8.03887,-24.86415 -21.29398,-24.86415 -8.72158,0 -15.64823,3.98981 -19.88058,11.45138 l -3.07638,5.42362 0,20.4967 0,20.49669 3.5,1.25254 c 2.13357,0.76354 7.22092,1.14487 13.03084,0.97676 8.34513,-0.24147 10.12319,-0.62291 14.29216,-3.0661 z m -40.323,-9.65659 0,-54 4.5,0 4.5,0 0,4.5 c 0,2.475 0.36581,4.5 0.81291,4.5 0.4471,0 2.1346,-1.4085 3.75,-3.13 8.5474,-9.1088 28.29493,-10.12888 38.43709,-1.98551 8.90822,7.15261 13.23876,21.5034 11.24808,37.2745 -1.94593,15.4166 -8.33915,25.17909 -20.10012,30.69305 -5.08287,2.38302 -6.79857,2.64796 -17.14796,2.64796 -6.325,0 -12.625,-0.225 -14,-0.5 l -2.5,-0.5 -0.27361,17.25 -0.27362,17.25 -4.47638,0 -4.47639,0 0,-54 z"
       style="fill:#eeeeec"
       id="path3915"
       inkscape:connector-curvature="0" />
    <path
       inkscape:export-ydpi="90"
       inkscape:export-xdpi="90"
       inkscape:export-filename="/home/crep/bloc/images/logo.png"
       id="path3913"
       d="m 523.60699,-380.9122 c 0,-3.29025 10.4639,-51.49521 11.3672,-52.36585 0.623,-0.60059 19.3578,-5.92867 41.6328,-11.84016 22.275,-5.91149 40.8871,-11.11717 41.3602,-11.56818 0.4731,-0.451 -13.5894,-17.10087 -31.25,-36.99972 -17.6606,-19.89884 -32.1102,-36.99266 -32.1102,-37.98627 0,-2.25846 10.6384,-53.98545 11.2232,-54.5702 0.2353,-0.23532 31.8,34.94997 70.1438,78.18953 38.3438,43.23956 69.5237,78.8096 69.2888,79.04454 -1.0515,1.05154 -181.6558,48.86944 -181.6558,48.09631 z"
       style="fill:#ffffff;stroke:#5c3566;stroke-width:20;stroke-miterlimit:4;stroke-dasharray:none"
       inkscape:connector-curvature="0" />
    <path
       inkscape:export-ydpi="90"
       inkscape:export-xdpi="90"
       inkscape:export-filename="/home/crep/bloc/images/logo.png"
       id="path3885"
       d="m 413.20489,-416.39497 c 0.2377,-0.98509 9.6575,-47.01608 20.9329,-102.29108 11.2755,-55.275 20.7155,-101.09086 20.9778,-101.81301 0.2786,-0.7668 8.187,7.34521 19.0106,19.5 13.9639,15.68122 18.4162,21.30614 18.0572,22.81301 -2.9128,12.22485 -18.6317,91.77805 -18.2165,92.19324 0.3049,0.30488 18.3796,-4.23718 40.1661,-10.09346 21.7865,-5.85628 40.3961,-10.74948 41.3547,-10.87378 1.1526,-0.14947 8.2119,7.05452 20.8465,21.274 15.3578,17.28423 18.7771,21.64534 17.4382,22.2412 -0.916,0.40766 -41.2654,11.33049 -89.6654,24.27295 -48.4,12.94246 -88.7502,23.76491 -89.6671,24.04988 -1.2137,0.37721 -1.5496,0.031 -1.235,-1.27295 z"
       style="fill:#ffffff;stroke:#5c3566;stroke-width:20;stroke-miterlimit:4;stroke-dasharray:none"
       inkscape:connector-curvature="0" />
    <path
       inkscape:export-ydpi="90"
       inkscape:export-xdpi="90"
       inkscape:export-filename="/home/crep/bloc/images/logo.png"
       id="path3883"
       d="m 490.60699,-504.49771 c 0,-1.80069 41.0909,-201.82585 41.8224,-203.58608 0.6532,-1.57169 12.7803,11.62633 70.5833,76.81648 38.3871,43.29283 69.6371,78.85716 69.4445,79.03185 -1.2785,1.1596 -47.1794,12.60016 -47.7884,11.911 -0.4187,-0.47388 -15.0632,-17.06159 -32.5433,-36.86159 -17.4802,-19.8 -32.1653,-36.42 -32.6336,-36.93333 -0.4684,-0.51334 -1.0436,-0.73834 -1.2784,-0.5 -0.2348,0.23833 -4.7424,21.58333 -10.0169,47.43333 -5.2745,25.85 -9.8075,47.9486 -10.0732,49.10799 -0.4191,1.82833 -3.5114,2.92285 -23.3084,8.25 -24.6057,6.62113 -24.208,6.53356 -24.208,5.33035 z"
       style="fill:#ffffff;stroke:#5c3566;stroke-width:20;stroke-miterlimit:4;stroke-dasharray:none"
       inkscape:connector-curvature="0" />
    <path
       inkscape:export-ydpi="90"
       inkscape:export-xdpi="90"
       inkscape:export-filename="/home/crep/bloc/images/logo.png"
       d="m -88.393007,-560.54164 c -2.1663,-0.63621 -2.6089,-1.52911 -3.3159,-6.68931 -0.8716,-6.36117 -0.3021,-27.83393 0.8127,-30.64356 0.4602,-1.1599 2.383,-1.90249 6.1422,-2.37217 6.826,-0.85286 35.0196,-0.11406 36.0791,0.94543 1.0518,1.05173 1.0051,37.2248 -0.049,38.28187 -1.0447,1.04734 -36.2841,1.47175 -39.6687,0.47774 z m 235.999997,70.85559 0,-104 58.875,0 58.875,0 0.625,3.125 c 0.3438,1.71875 0.625,8.1875 0.625,14.375 0,6.1875 -0.2812,12.65625 -0.625,14.375 l -0.625,3.125 -37.875,0 -37.875,0 0,23 0,23 29.9547,0 29.9547,0 0.7933,3.75 c 0.9743,4.60576 0.9561,25.72713 -0.025,29.5 l -0.7154,2.75 -29.981,0 -29.9809,0 0,28 0,28 38.9205,0 38.9206,0 0.6948,3.16359 c 0.3822,1.73997 0.6949,8.19135 0.6949,14.33641 0,6.14506 -0.3127,12.59644 -0.6949,14.33641 l -0.6948,3.16359 -59.9206,0 -59.9205,0 0,-104 z m -1128,0.5 0,-104.5 51,0 51,0 0,9 0,9 -41.5,0 -41.5,0 0,35.5 0,35.5 36,0 36,0 0,8.98737 0,8.98737 -35.75,0.26263 -35.75,0.26263 -0.25916,50.75 -0.25917,50.75 -9.49083,0 -9.49084,0 0,-104.5 z m 958.750003,104.77153 -3.75,-0.39226 0,-104.42058 0,-104.42059 2.75,-0.76905 c 4.3405,-1.21385 28.4504997,-0.80881 30.8900997,0.51895 1.2031,0.65477 19.5927003,29.90801 42.0000003,66.81135 l 39.8599,65.64659 0.2571,-66.10571 0.2572,-66.10571 2.7428,-0.76124 c 3.4849,-0.96718 30.161397,-1.01206 32.492897,-0.0547 1.6509,0.67792 1.75,6.63266 1.75,105.16468 l 0,104.44606 -7.689,0.72052 c -7.6862,0.72025 -22.480697,0.12014 -25.310997,-1.0267 -0.825,-0.33429 -19.725,-30.38618 -42,-66.78198 l -40.5,-66.17417 -0.257,66.57803 -0.2571,66.57803 -5.2429003,0.62976 c -5.42789996,0.65198 -21.4270997,0.6055 -27.9929997,-0.0813 z m -59,0 -3.75,-0.39226 0,-59.43964 0,-59.43963 -9.8692,0 -9.869103,0 -0.6199,-3.75 c -0.8068,-4.88153 -0.8175,-20.12169 -0.017,-24.125 l 0.625,-3.125 29.875003,0 29.875,0 0,74.85754 0,74.85755 -6.1467,0.64245 c -6.3159,0.66014 -23.4378,0.61122 -30.1033,-0.086 z m -80.750003,-78.71546 c 0,-1.79136 -22.7819,-84.67126 -23.4609,-85.35032 -0.6523,-0.65224 0.1248,-3.20058 -13.0494,42.79425 -6.3802,22.275 -11.8307,41.2875 -12.1124,42.25 -0.4779,1.63307 1.1294,1.75 24.0553,1.75 20.747,0 24.5674,-0.22454 24.5674,-1.44393 z m -108.1015,78.55198 -3.6015,-0.60809 32.7232,-103.78837 c 17.9978,-57.0836 33.0109,-104.07605 33.3625,-104.42766 0.3516,-0.35161 5.5451,-1.08333 11.5412,-1.62604 11.4593,-1.03721 33.3438,0.16169 34.9979,1.91729 0.902,0.95736 65.078203,205.14934 65.078203,207.06193 0,2.06855 -23.977703,3.17068 -37.723503,1.73396 l -6.017,-0.62889 -5.7953,-20.87111 -5.7953,-20.87111 -34.8065,0 -34.8065,0 -1.6806,5.75 c -0.9243,3.1625 -3.583,12.5 -5.9082,20.75 l -4.2276,15 -4.3697,0.67588 c -5.3107,0.8214 -27.981,0.77479 -32.9713,-0.0678 z m -63.6485,0.1597 -4.25,-0.38279 0,-86.4425 0,-86.4425 -25.94098,0 c -16.84586,0 -26.16587,-0.36388 -26.58241,-1.03784 -1.11815,-1.8092 -1.77582,-19.27666 -1.02676,-27.27023 l 0.72079,-7.69189 73.39566,0 73.3956,0 0.7216,2.75 c 0.9648,3.67647 0.9608,24.7855 -0.01,29.5 l -0.7686,3.75 -25.9547,0 -25.9547,0 0,86.35326 0,86.35327 -7.6509,0.64673 c -7.7518,0.65528 -22.3346,0.61387 -30.0991,-0.0855 z m -214.5,0.016 -2.75,-0.41659 0,-104.38827 0,-104.38826 3.75,-0.734 c 4.91232,-0.96151 20.53834,-0.99044 26.25,-0.0486 l 4.5,0.74204 40,65.94484 c 22,36.26966 40.3375,65.9584 40.75,65.97497 0.4125,0.0166 0.75,-29.64948 0.75,-65.92456 l 0,-65.95468 3.75,-0.73039 c 5.09891,-0.99311 24.87297,-1.03251 29.5,-0.0588 l 3.75,0.78917 0,104.31876 0,104.31876 -4.63957,0.63593 c -5.87037,0.80462 -19.72466,0.82187 -25.48935,0.0317 l -4.40807,-0.6042 -40.48151,-66.03206 -40.4815,-66.03207 -0.2571,66.00657 -0.25709,66.00657 -3.74291,0.61868 c -4.02423,0.66519 -25.96192,0.61083 -30.4929,-0.0756 z m -315,0 -2.75,-0.41659 0,-104.43358 0,-104.43358 58.95469,0 58.95468,0 0.75888,3.75 c 0.95871,4.73742 0.94048,23.53529 -0.0276,28.5 l -0.73125,3.75 -37.95468,0 -37.95469,0 0,24.5 0,24.5 30.03138,0 c 27.66369,0 30.08747,0.13797 30.74267,1.75 0.93158,2.29202 0.93789,30.23388 0.007,32.5 -0.66189,1.61187 -3.0891,1.75 -30.75,1.75 l -30.03108,0 0,43.86916 0,43.86916 -3.75,0.61983 c -4.03964,0.66771 -30.97378,0.61126 -35.5,-0.0744 z m 224.98253,-35.7442 c 11.64978,-5.22812 19.82685,-16.67519 24.24078,-33.93467 3.06331,-11.97824 4.40081,-32.86043 3.0915,-48.2672 -2.59418,-30.52598 -10.36657,-46.93022 -25.84642,-54.55093 -6.42719,-3.16409 -7.12572,-3.28675 -18.71839,-3.28675 -11.565,0 -12.30358,0.12875 -18.64361,3.24993 -11.69697,5.7584 -18.74719,15.95722 -23.62243,34.17211 -2.38267,8.90216 -2.56956,11.20078 -2.64875,32.57796 -0.069,18.62768 0.25694,24.58651 1.71461,31.34563 4.83997,22.44266 14.0259,35.07608 29.20018,40.15906 8.92555,2.98981 22.75072,2.34126 31.23253,-1.46514 z m -37.89805,36.96102 c -26.19015,-4.96831 -46.74872,-21.10237 -58.37201,-45.80948 -13.4738,-28.64065 -15.24099,-76.6877 -4.04708,-110.03377 9.41644,-28.05111 27.7105,-46.38797 54.08461,-54.21117 12.1196,-3.59497 35.37476,-4.54973 48.87512,-2.00661 38.29604,7.21397 61.36783,34.4084 68.7718,81.06046 1.91491,12.06577 1.595,41.85997 -0.57982,54 -7.38333,41.21443 -28.08364,66.54134 -61.843,75.66514 -9.82625,2.65564 -36.00061,3.4011 -46.88962,1.33543 z m -363.83447,-73.64797 c 0,-0.63108 -8.1426,-26.39358 -18.0948,-57.25 -15.6088,-48.395 -19.9052,-60.75962 -19.9052,-57.28514 0,0.3946 -7.8918,25.5721 -17.5373,55.95 -9.6456,30.3779 -17.7944,56.24504 -18.1084,57.48254 l -0.5711,2.25 37.1084,0 c 27.2504,0 37.1084,-0.30481 37.1084,-1.1474 z m -191,73.20343 c -27.2987,-5.7913 -47.87,-21.45392 -59.841,-45.56167 -8.8773,-17.87771 -11.6704,-31.92837 -11.6276,-58.49436 0.034,-21.00407 1.2198,-29.76555 6.1423,-45.374 9.8623,-31.27195 31.8684,-52.86991 61.8263,-60.67975 16.348,-4.26181 44.5796,-3.67934 65,1.34107 l 9,2.21268 -0.271,3.5 c -0.3545,4.57938 -3.1386,13 -4.2982,13 -0.4997,0 -4.176,-0.87833 -8.1696,-1.95184 -16.4127,-4.41181 -40.744,-5.08491 -54.2612,-1.50108 -26.2327,6.95508 -44.8164,28.88193 -51.6595,60.95292 -2.5659,12.02565 -3.4585,33.55193 -1.9035,45.90617 3.8855,30.86917 17.5775,52.72535 39.8259,63.57325 19.5582,9.5362 47.567,10.35348 70.3143,2.05174 9.7698,-3.56552 9.4745,-3.70861 13.1502,6.37239 l 2.1637,5.93416 33.5545,-100.69602 33.5544,-100.69603 11.9177,0.27717 11.9177,0.27717 34.7612,104.28311 34.76119,104.28311 -10.64289,-0.28311 -10.6429,-0.28311 -8.536,-26.24243 -8.536,-26.24243 -43.376,0.24243 -43.376,0.24243 -8.124,26.2494 -8.124,26.2494 -10.8174,6e-4 c -11.8755,6.6e-4 -11.2554,0.40832 -8.8996,-5.85046 0.4066,-1.08012 -0.072,-1.05225 -2.3872,0.139 -4.816,2.4781 -16.2504,5.67985 -25.8382,7.23494 -12.6847,2.05737 -35.7493,1.8261 -46.5576,-0.46685 z"
       style="fill:#eeeeec"
       id="path3861"
       inkscape:connector-curvature="0" />
  </g>
</svg>
