<?xml version="1.0" encoding="UTF-8" standalone="no"?>
<!-- Created with Inkscape (http://www.inkscape.org/) -->
<svg xmlns:dc="http://purl.org/dc/elements/1.1/" xmlns:cc="http://creativecommons.org/ns#" xmlns:rdf="http://www.w3.org/1999/02/22-rdf-syntax-ns#" xmlns:svg="http://www.w3.org/2000/svg" xmlns="http://www.w3.org/2000/svg" xmlns:sodipodi="http://sodipodi.sourceforge.net/DTD/sodipodi-0.dtd" xmlns:inkscape="http://www.inkscape.org/namespaces/inkscape" width="203.96625" height="34.622185" id="svg3692" sodipodi:version="0.32" inkscape:version="0.46" version="1.0" sodipodi:docname="Logo FFCAM (sans fond).svg" inkscape:output_extension="org.inkscape.output.svg.inkscape">
  <defs id="defs3694">
    <clipPath clipPathUnits="userSpaceOnUse" id="clipPath131">
      <path d="M 400.723,830.3898 L 559.275,830.3898 L 559.275,805.8898 L 400.723,805.8898" id="path133"/>
    </clipPath>
    <inkscape:perspective sodipodi:type="inkscape:persp3d" inkscape:vp_x="0 : 526.18109 : 1" inkscape:vp_y="0 : 1000 : 0" inkscape:vp_z="744.09448 : 526.18109 : 1" inkscape:persp3d-origin="372.04724 : 350.78739 : 1" id="perspective3700"/>
    <inkscape:perspective id="perspective3746" inkscape:persp3d-origin="372.04724 : 350.78739 : 1" inkscape:vp_z="744.09448 : 526.18109 : 1" inkscape:vp_y="0 : 1000 : 0" inkscape:vp_x="0 : 526.18109 : 1" sodipodi:type="inkscape:persp3d"/>
    <inkscape:perspective id="perspective3933" inkscape:persp3d-origin="372.04724 : 350.78739 : 1" inkscape:vp_z="744.09448 : 526.18109 : 1" inkscape:vp_y="0 : 1000 : 0" inkscape:vp_x="0 : 526.18109 : 1" sodipodi:type="inkscape:persp3d"/>
    <inkscape:perspective id="perspective4018" inkscape:persp3d-origin="372.04724 : 350.78739 : 1" inkscape:vp_z="744.09448 : 526.18109 : 1" inkscape:vp_y="0 : 1000 : 0" inkscape:vp_x="0 : 526.18109 : 1" sodipodi:type="inkscape:persp3d"/>
    <inkscape:perspective id="perspective4127" inkscape:persp3d-origin="372.04724 : 350.78739 : 1" inkscape:vp_z="744.09448 : 526.18109 : 1" inkscape:vp_y="0 : 1000 : 0" inkscape:vp_x="0 : 526.18109 : 1" sodipodi:type="inkscape:persp3d"/>
    <inkscape:perspective id="perspective4184" inkscape:persp3d-origin="372.04724 : 350.78739 : 1" inkscape:vp_z="744.09448 : 526.18109 : 1" inkscape:vp_y="0 : 1000 : 0" inkscape:vp_x="0 : 526.18109 : 1" sodipodi:type="inkscape:persp3d"/>
  </defs>
  <sodipodi:namedview id="base" pagecolor="#979797" bordercolor="#666666" borderopacity="1.0" inkscape:pageopacity="1" inkscape:pageshadow="2" inkscape:zoom="6.6677699" inkscape:cx="101.98313" inkscape:cy="17.311089" inkscape:document-units="px" inkscape:current-layer="layer1" showgrid="false" inkscape:object-paths="true" inkscape:object-nodes="true" objecttolerance="2" gridtolerance="2" guidetolerance="2" inkscape:snap-bbox="false" inkscape:snap-intersection-line-segments="true" inkscape:window-width="1440" inkscape:window-height="850" inkscape:window-x="-8" inkscape:window-y="-8" units="cm"/>
  <metadata id="metadata3697">
    <rdf:RDF>
      <cc:Work rdf:about="">
        <dc:format>image/svg+xml</dc:format>
        <dc:type rdf:resource="http://purl.org/dc/dcmitype/StillImage"/>
      </cc:Work>
    </rdf:RDF>
  </metadata>
  <g inkscape:label="Calque 1" inkscape:groupmode="layer" id="layer1" transform="translate(-1187.2893,519.62775)">
    <g id="g3778" transform="translate(8.8412345,-1.4230001)">
      <g transform="matrix(9.6068804e-2,0,0,9.6068804e-2,1165.4136,-453.79736)" id="g2411">
        <g id="g3964" transform="matrix(0.5298246,0,0,0.5298246,23.489309,-640.45891)">
          <path style="fill:#fefefe" d="M 414.49991,473.82607 C 414.86735,472.86357 426.84049,449.6312 441.10689,422.19858 C 455.3733,394.76596 467.04581,372.15346 467.04581,371.94858 C 467.04581,371.7437 419.30831,371.57607 360.96248,371.57607 L 254.87914,371.57607 L 255.21248,370.71361 C 256.40154,367.63703 422.49297,60.57914 422.96136,60.591536 C 423.28281,60.600044 435.6629,83.101266 450.47269,110.59426 L 477.39956,160.5815 L 479.9917,155.82879 C 481.41738,153.21479 504.59268,110.23857 531.49238,60.326068 C 558.39208,10.413568 580.6706,-30.423932 581.0002,-30.423932 C 581.3298,-30.423932 619.26368,39.438568 665.29771,124.82607 L 748.99595,280.07607 L 696.51012,280.57607 L 644.0243,281.07607 L 693.09616,372.07607 C 720.08569,422.12607 743.70702,465.88857 745.588,469.32607 L 749.00797,475.57607 L 581.4199,475.57607 L 413.83183,475.57607 L 414.49991,473.82607 z M 723.34124,453.75559 C 684.41759,381.08241 581.4263,190.62939 581.04581,190.62079 C 580.30866,190.60412 534.50509,275.85055 534.77926,276.72888 C 534.90765,277.14021 547.45117,298.0866 562.65373,323.27641 C 577.85629,348.46622 590.51042,369.63474 590.774,370.31755 L 591.25325,371.55904 L 536.07115,371.81755 L 480.88905,372.07607 L 456.96743,418.0386 C 443.81054,443.31799 433.04581,464.13049 433.04581,464.2886 C 433.04581,464.44671 499.66625,464.57607 581.09124,464.57607 L 729.13667,464.57607 L 723.34124,453.75559 z M 569.17588,357.81911 C 568.65872,356.85279 558.05349,339.19029 545.60871,318.56911 L 522.98182,281.07607 L 468.0075,280.57607 L 413.03319,280.07607 L 441.5395,227.21861 C 457.21797,198.14701 470.04581,173.96926 470.04581,173.49027 C 470.04581,172.49751 424.36502,87.479656 423.26443,86.424066 L 422.54581,85.734836 L 354.04581,212.81171 C 316.37081,282.70399 283.15658,344.31827 280.23642,349.73233 L 274.92702,359.57607 L 422.5216,359.57607 L 570.11618,359.57607 L 569.17588,357.81911 z M 552.53128,217.07607 C 567.83606,188.75107 580.66329,165.57607 581.03624,165.57607 C 581.40919,165.57607 594.21018,188.75107 609.48289,217.07607 L 637.25144,268.57607 L 683.24365,268.57607 L 729.23585,268.57607 L 726.78956,264.32607 C 725.44409,261.98857 692.4854,200.90107 653.54802,128.57607 C 614.61064,56.251068 582.25621,-3.453971 581.64929,-4.101798 L 580.54581,-5.279665 L 511.54581,122.83141 C 473.59581,193.2925 440.41143,254.91004 437.80274,259.75928 L 433.05967,268.57607 L 478.88204,268.57607 L 524.70441,268.57607 L 552.53128,217.07607 z" id="path3959"/>
          <path style="fill:#52b3e6" d="M 433.04581,464.2886 C 433.04581,464.13049 443.81054,443.31799 456.96743,418.0386 L 480.88905,372.07607 L 536.07115,371.81755 L 591.25325,371.55904 L 590.774,370.31755 C 590.51042,369.63474 577.85629,348.46622 562.65373,323.27641 C 547.45117,298.0866 534.90765,277.14021 534.77926,276.72888 C 534.50509,275.85055 580.30866,190.60412 581.04581,190.62079 C 581.4263,190.62939 684.41759,381.08241 723.34124,453.75559 L 729.13667,464.57607 L 581.09124,464.57607 C 499.66625,464.57607 433.04581,464.44671 433.04581,464.2886 z M 280.23642,349.73233 C 283.15658,344.31827 316.37081,282.70399 354.04581,212.81171 L 422.54581,85.734836 L 423.26443,86.424066 C 424.36502,87.479656 470.04581,172.49751 470.04581,173.49027 C 470.04581,173.96926 457.21797,198.14701 441.5395,227.21861 L 413.03319,280.07607 L 468.0075,280.57607 L 522.98182,281.07607 L 545.60871,318.56911 C 558.05349,339.19029 568.65872,356.85279 569.17588,357.81911 L 570.11618,359.57607 L 422.5216,359.57607 L 274.92702,359.57607 L 280.23642,349.73233 z M 437.80274,259.75928 C 440.41143,254.91004 473.59581,193.2925 511.54581,122.83141 L 580.54581,-5.279665 L 581.64929,-4.101798 C 582.25621,-3.453971 614.61064,56.251068 653.54802,128.57607 C 692.4854,200.90107 725.44409,261.98857 726.78956,264.32607 L 729.23585,268.57607 L 683.24365,268.57607 L 637.25144,268.57607 L 609.48289,217.07607 C 594.21018,188.75107 581.40919,165.57607 581.03624,165.57607 C 580.66329,165.57607 567.83606,188.75107 552.53128,217.07607 L 524.70441,268.57607 L 478.88204,268.57607 L 433.05967,268.57607 L 437.80274,259.75928 z" id="path3957"/>
        </g>
      </g>
      <g style="fill:#000000" id="g127" transform="matrix(1.25,0,0,-1.25,668.17428,563.37609)">
        <g transform="translate(10.378564,32.737599)" style="fill:#000000" clip-path="url(#clipPath131)" id="g129">
          <path id="path135" style="fill:#000000;fill-opacity:1;fill-rule:nonzero;stroke:none" d="M 427.787,816.3007 C 425.564,816.3007 423.3794,817.6661 423.3794,821.3716 C 423.3794,825.078 425.564,826.4241 427.787,826.4241 C 429.1529,826.4241 430.1085,826.0332 431.0439,825.0392 L 429.6794,823.7117 C 429.0543,824.3948 428.5675,824.6484 427.787,824.6484 C 427.0268,824.6484 426.3832,824.3367 425.954,823.7706 C 425.5249,823.2249 425.369,822.5232 425.369,821.3716 C 425.369,820.22 425.5249,819.499 425.954,818.9541 C 426.3832,818.3881 427.0268,818.0755 427.787,818.0755 C 428.5675,818.0755 429.0543,818.3299 429.6794,819.0114 L 431.0439,817.7049 C 430.1085,816.7109 429.1529,816.3007 427.787,816.3007"/>
          <path id="path137" style="fill:#000000;fill-opacity:1;fill-rule:nonzero;stroke:none" d="M 435.2182,816.4178 C 433.3259,816.4178 432.5062,817.6855 432.5062,819.1486 L 432.5062,830.3047 L 434.4958,830.3047 L 434.4958,819.2657 C 434.4958,818.5051 434.7693,818.1143 435.5686,818.1143 L 436.4468,818.1143 L 436.4468,816.4178 L 435.2182,816.4178"/>
          <path id="path139" style="fill:#000000;fill-opacity:1;fill-rule:nonzero;stroke:none" d="M 443.8181,816.4178 L 443.8181,817.4126 C 443.1358,816.6713 442.1802,816.3007 441.1858,816.3007 C 440.1716,816.3007 439.3326,816.6326 438.7485,817.1987 C 437.9874,817.939 437.7528,818.8757 437.7528,819.9868 L 437.7528,826.3061 L 439.7425,826.3061 L 439.7425,820.2799 C 439.7425,818.7393 440.6206,818.0755 441.7312,818.0755 C 442.844,818.0755 443.7803,818.7587 443.7803,820.2799 L 443.7803,826.3061 L 445.769,826.3061 L 445.769,816.4178 L 443.8181,816.4178"/>
          <path id="path141" style="fill:#000000;fill-opacity:1;fill-rule:nonzero;stroke:none" d="M 452.2059,824.6484 C 450.4108,824.6484 450.1378,823.1271 450.1378,821.3716 C 450.1378,819.6161 450.4108,818.0755 452.2059,818.0755 C 454,818.0755 454.2532,819.6161 454.2532,821.3716 C 454.2532,823.1271 454,824.6484 452.2059,824.6484 z M 455.1304,817.1784 C 454.585,816.6326 453.7069,816.3007 452.7125,816.3007 C 451.6397,816.3007 450.8399,816.5736 450.0991,817.4716 L 450.0991,816.4178 L 448.1491,816.4178 L 448.1491,830.3047 L 450.1378,830.3047 L 450.1378,825.3122 C 450.8598,826.1697 451.6794,826.4241 452.7323,826.4241 C 453.7267,826.4241 454.585,826.0922 455.1304,825.5455 C 456.1257,824.5516 456.2428,822.8735 456.2428,821.3716 C 456.2428,819.8698 456.1257,818.1732 455.1304,817.1784"/>
          <path id="path143" style="fill:#000000;fill-opacity:1;fill-rule:nonzero;stroke:none" d="M 467.3403,820.787 L 465.0187,820.787 C 463.8488,820.787 463.2448,820.2597 463.2448,819.3635 C 463.2448,818.4664 463.81,817.9593 465.0584,817.9593 C 465.8186,817.9593 466.3847,818.0174 466.9111,818.5245 C 467.2034,818.8168 467.3403,819.2851 467.3403,819.9868 L 467.3403,820.787 z M 467.379,816.4178 L 467.379,817.3149 C 466.658,816.593 465.9744,816.3007 464.7467,816.3007 C 463.5168,816.3007 462.6985,816.593 462.0933,817.1987 C 461.5871,817.7242 461.3137,818.4849 461.3137,819.3248 C 461.3137,820.9816 462.464,822.171 464.7269,822.171 L 467.3403,822.171 L 467.3403,822.8735 C 467.3403,824.1219 466.7166,824.7259 465.175,824.7259 C 464.083,824.7259 463.5565,824.4732 463.0102,823.7706 L 461.7033,824.9996 C 462.64,826.0922 463.6145,826.4241 465.2534,826.4241 C 467.964,826.4241 469.3291,825.2726 469.3291,823.0294 L 469.3291,816.4178 L 467.379,816.4178"/>
          <path id="path145" style="fill:#000000;fill-opacity:1;fill-rule:nonzero;stroke:none" d="M 474.2635,816.4178 C 472.3716,816.4178 471.5529,817.6855 471.5529,819.1486 L 471.5529,830.3047 L 473.5425,830.3047 L 473.5425,819.2657 C 473.5425,818.5051 473.815,818.1143 474.6153,818.1143 L 475.4925,818.1143 L 475.4925,816.4178 L 474.2635,816.4178"/>
          <path id="path147" style="fill:#000000;fill-opacity:1;fill-rule:nonzero;stroke:none" d="M 480.9535,824.6484 C 479.1597,824.6484 478.886,823.1271 478.886,821.3716 C 478.886,819.6161 479.1597,818.0755 480.9535,818.0755 C 482.7485,818.0755 483.0021,819.6161 483.0021,821.3716 C 483.0021,823.1271 482.7485,824.6484 480.9535,824.6484 z M 483.879,817.1784 C 483.334,816.6326 482.4747,816.3007 481.4799,816.3007 C 480.427,816.3007 479.6079,816.5736 478.886,817.4311 L 478.886,813.5292 L 476.8972,813.5292 L 476.8972,826.3061 L 478.8472,826.3061 L 478.8472,825.2523 C 479.589,826.1494 480.3883,826.4241 481.4615,826.4241 C 482.4545,826.4241 483.334,826.0922 483.879,825.5455 C 484.8746,824.5516 484.9909,822.8735 484.9909,821.3716 C 484.9909,819.8698 484.8746,818.1732 483.879,817.1784"/>
          <path id="path149" style="fill:#000000;fill-opacity:1;fill-rule:nonzero;stroke:none" d="M 488.8918,816.4178 L 486.9022,816.4178 L 486.9022,826.3061 L 488.8918,826.3061 L 488.8918,816.4178 z M 486.8441,828.2562 L 486.8441,830.3629 L 488.95,830.3629 L 488.95,828.2562 L 486.8441,828.2562"/>
          <path id="path151" style="fill:#000000;fill-opacity:1;fill-rule:nonzero;stroke:none" d="M 497.2971,816.4178 L 497.2971,822.4448 C 497.2971,823.9855 496.42,824.6484 495.3093,824.6484 C 494.1978,824.6484 493.2602,823.9652 493.2602,822.4448 L 493.2602,816.4178 L 491.2706,816.4178 L 491.2706,826.3061 L 493.2214,826.3061 L 493.2214,825.3122 C 493.9039,826.0526 494.8604,826.4241 495.8538,826.4241 C 496.8689,826.4241 497.7073,826.0922 498.2924,825.5261 C 499.0532,824.7857 499.2867,823.849 499.2867,822.7371 L 499.2867,816.4178 L 497.2971,816.4178"/>
          <path id="path153" style="fill:#000000;fill-opacity:1;fill-rule:nonzero;stroke:none" d="M 505.6243,823.8376 L 505.6243,816.3799 L 504.3865,816.3799 L 504.3865,823.8376 L 503.3029,823.8376 L 503.3029,824.7831 L 504.3865,824.7831 L 504.3865,826.3801 C 504.3865,827.6355 505.0915,828.6497 506.5348,828.6497 L 507.4272,828.6497 L 507.4272,827.5836 L 506.7584,827.5836 C 505.9668,827.5836 505.6243,827.1196 505.6243,826.3466 L 505.6243,824.7831 L 507.4272,824.7831 L 507.4272,823.8376 L 505.6243,823.8376"/>
          <path id="path155" style="fill:#000000;fill-opacity:1;fill-rule:nonzero;stroke:none" d="M 513.6467,823.2187 C 513.1807,823.6835 512.8372,823.8376 512.1836,823.8376 C 510.9476,823.8376 510.157,822.8586 510.157,821.5688 L 510.157,816.3799 L 508.9193,816.3799 L 508.9193,824.8342 L 510.157,824.8342 L 510.157,823.8032 C 510.6195,824.5084 511.5498,824.938 512.528,824.938 C 513.3357,824.938 513.9532,824.7488 514.5563,824.1466 L 513.6467,823.2187"/>
          <path id="path157" style="fill:#000000;fill-opacity:1;fill-rule:nonzero;stroke:none" d="M 520.6694,820.2808 L 518.2994,820.2808 C 517.0283,820.2808 516.4071,819.7649 516.4071,818.785 C 516.4071,817.8061 517.0102,817.3421 518.3499,817.3421 C 519.0701,817.3421 519.7057,817.3932 520.2403,817.9091 C 520.5297,818.1846 520.6694,818.6653 520.6694,819.3697 L 520.6694,820.2808 z M 520.6694,816.3799 L 520.6694,817.1873 C 519.9824,816.5005 519.364,816.2769 518.2299,816.2769 C 517.0616,816.2769 516.3738,816.5005 515.8401,817.049 C 515.4281,817.4619 515.2045,818.0984 515.2045,818.7684 C 515.2045,820.2465 516.2367,821.2087 518.1263,821.2087 L 520.6694,821.2087 L 520.6694,822.0161 C 520.6694,823.2539 520.051,823.8719 518.504,823.8719 C 517.4213,823.8719 516.8723,823.6148 516.3738,822.9097 L 515.5308,823.6835 C 516.2872,824.6625 517.1454,824.938 518.5229,824.938 C 520.7902,824.938 521.9081,823.9582 521.9081,822.1191 L 521.9081,816.3799 L 520.6694,816.3799"/>
          <path id="path159" style="fill:#000000;fill-opacity:1;fill-rule:nonzero;stroke:none" d="M 529.3391,816.3799 L 529.3391,821.5873 C 529.3391,823.0822 528.5305,823.8376 527.2593,823.8376 C 525.9891,823.8376 525.1625,823.0646 525.1625,821.5873 L 525.1625,816.3799 L 523.9265,816.3799 L 523.9265,824.8342 L 525.1625,824.8342 L 525.1625,823.9071 C 525.7656,824.5938 526.5895,824.938 527.5361,824.938 C 528.4457,824.938 529.1849,824.6625 529.7006,824.1466 C 530.301,823.5629 530.5769,822.7723 530.5769,821.7925 L 530.5769,816.3799 L 529.3391,816.3799"/>
          <path id="path161" style="fill:#000000;fill-opacity:1;fill-rule:nonzero;stroke:none" d="M 535.6776,814.9651 L 534.3208,814.9651 L 535.2728,816.8923 L 536.4249,816.8923 L 535.6776,814.9651 z M 535.875,816.2769 C 533.7448,816.2769 532.1293,817.7198 532.1293,820.6074 C 532.1293,823.4942 533.7448,824.938 535.875,824.938 C 537.0443,824.938 537.7808,824.6281 538.6597,823.6835 L 537.8159,822.8929 C 537.1804,823.5972 536.6827,823.8376 535.875,823.8376 C 535.051,823.8376 534.3623,823.5109 533.9169,822.8753 C 533.5221,822.3251 533.367,821.6719 533.367,820.6074 C 533.367,819.5413 533.5221,818.889 533.9169,818.3378 C 534.3623,817.7023 535.051,817.3765 535.875,817.3765 C 536.6827,817.3765 537.1804,817.6345 537.8159,818.3378 L 538.6597,817.5305 C 537.7808,816.5867 537.0443,816.2769 535.875,816.2769"/>
          <path id="path163" style="fill:#000000;fill-opacity:1;fill-rule:nonzero;stroke:none" d="M 545.3398,820.2808 L 542.968,820.2808 C 541.6978,820.2808 541.0793,819.7649 541.0793,818.785 C 541.0793,817.8061 541.6807,817.3421 543.0203,817.3421 C 543.7424,817.3421 544.3788,817.3932 544.9108,817.9091 C 545.2028,818.1846 545.3398,818.6653 545.3398,819.3697 L 545.3398,820.2808 z M 545.3398,816.3799 L 545.3398,817.1873 C 544.652,816.5005 544.0363,816.2769 542.9004,816.2769 C 541.7311,816.2769 541.046,816.5005 540.5123,817.049 C 540.0994,817.4619 539.8759,818.0984 539.8759,818.7684 C 539.8759,820.2465 540.9072,821.2087 542.7994,821.2087 L 545.3398,821.2087 L 545.3398,822.0161 C 545.3398,823.2539 544.7205,823.8719 543.1754,823.8719 C 542.0936,823.8719 541.5427,823.6148 541.046,822.9097 L 540.2031,823.6835 C 540.9603,824.6625 541.8177,824.938 543.1916,824.938 C 545.4625,824.938 546.5767,823.9582 546.5767,822.1191 L 546.5767,816.3799 L 545.3398,816.3799"/>
          <path id="path165" style="fill:#000000;fill-opacity:1;fill-rule:nonzero;stroke:none" d="M 550.308,816.3799 L 549.0712,816.3799 L 549.0712,824.8342 L 550.308,824.8342 L 550.308,816.3799 z M 549.0017,827.2402 L 549.0017,828.6321 L 550.3918,828.6321 L 550.3918,827.2402 L 549.0017,827.2402"/>
          <path id="path167" style="fill:#000000;fill-opacity:1;fill-rule:nonzero;stroke:none" d="M 555.5665,816.2769 C 554.1403,816.2769 553.0215,816.6026 552.0939,817.4962 L 552.9178,818.3212 C 553.5895,817.6168 554.4991,817.3421 555.5475,817.3421 C 556.9403,817.3421 557.7986,817.8405 557.7986,818.837 C 557.7986,819.5757 557.3713,819.9877 556.3904,820.0748 L 554.9976,820.1945 C 553.3497,820.3318 552.4716,821.0714 552.4716,822.4624 C 552.4716,824.0092 553.7779,824.938 555.5836,824.938 C 556.7853,824.938 557.8671,824.6448 558.6244,824.0269 L 557.8157,823.2187 C 557.2162,823.6835 556.44,823.8895 555.5665,823.8895 C 554.3278,823.8895 553.6751,823.356 553.6751,822.4968 C 553.6751,821.7758 554.0871,821.3452 555.1526,821.2598 L 556.5104,821.14 C 557.987,821.0018 559.0021,820.4349 559.0021,818.8538 C 559.0021,817.2216 557.6093,816.2769 555.5665,816.2769"/>
          <g id="g3639">
            <path d="M 424.5534,809.3801 L 424.5534,807.0648 L 423.8139,807.0648 L 423.8139,809.3801 L 423.5075,809.3801 L 423.5075,809.9435 L 423.8139,809.9435 L 423.8139,810.3133 C 423.8139,810.7332 424.0762,811.1592 424.6784,811.1592 L 425.0997,811.1592 L 425.0997,810.5352 L 424.81,810.5352 C 424.6335,810.5352 424.5534,810.4374 424.5534,810.2666 L 424.5534,809.9435 L 425.0997,809.9435 L 425.0997,809.3801 L 424.5534,809.3801" style="fill:#000000;fill-opacity:1;fill-rule:nonzero;stroke:none" id="path169"/>
            <path d="M 427.011,810.5008 L 426.5157,810.5008 L 426.8802,811.4666 L 427.6589,811.4666 L 427.011,810.5008 z M 427.3063,809.1406 C 427.2262,809.3167 427.0612,809.4479 426.8115,809.4479 C 426.5611,809.4479 426.3969,809.3167 426.3168,809.1406 C 426.2715,809.0331 426.2542,808.9531 426.249,808.822 L 427.375,808.822 C 427.3688,808.9531 427.3516,809.0331 427.3063,809.1406 z M 426.249,808.3166 C 426.249,807.9345 426.4814,807.6572 426.8969,807.6572 C 427.2218,807.6572 427.3803,807.747 427.5678,807.9345 L 428.0176,807.4978 C 427.7156,807.1967 427.4256,807.0304 426.8908,807.0304 C 426.1922,807.0304 425.5205,807.35 425.5205,808.5499 C 425.5205,809.5156 426.0435,810.0623 426.8115,810.0623 C 427.6365,810.0623 428.1026,809.4593 428.1026,808.6459 L 428.1026,808.3166 L 426.249,808.3166" style="fill:#000000;fill-opacity:1;fill-rule:nonzero;stroke:none" id="path171"/>
            <path d="M 429.8999,809.3969 C 429.4557,809.3969 429.3989,809.0331 429.3989,808.5499 C 429.3989,808.0666 429.4557,807.6959 429.8999,807.6959 C 430.3436,807.6959 430.4056,808.0666 430.4056,808.5499 C 430.4056,809.0331 430.3436,809.3969 429.8999,809.3969 z M 430.4229,807.0648 L 430.4229,807.3447 C 430.2181,807.1175 430.002,807.0304 429.689,807.0304 C 429.3989,807.0304 429.1265,807.1343 428.9614,807.298 C 428.6652,807.5947 428.6594,808.1061 428.6594,808.5499 C 428.6594,808.9936 428.6652,809.4998 428.9614,809.7947 C 429.1265,809.9594 429.3932,810.0623 429.6837,810.0623 C 429.9848,810.0623 430.212,809.9822 430.4056,809.7665 L 430.4056,811.1135 L 431.1451,811.1135 L 431.1451,807.0648 L 430.4229,807.0648" style="fill:#000000;fill-opacity:1;fill-rule:nonzero;stroke:none" id="path173"/>
            <path d="M 433.3175,810.5008 L 432.8227,810.5008 L 433.1868,811.4666 L 433.9658,811.4666 L 433.3175,810.5008 z M 433.6133,809.1406 C 433.534,809.3167 433.369,809.4479 433.1185,809.4479 C 432.8685,809.4479 432.7038,809.3167 432.6233,809.1406 C 432.5784,809.0331 432.5612,808.9531 432.556,808.822 L 433.6819,808.822 C 433.6763,808.9531 433.6581,809.0331 433.6133,809.1406 z M 432.556,808.3166 C 432.556,807.9345 432.7884,807.6572 433.2039,807.6572 C 433.5279,807.6572 433.6873,807.747 433.8748,807.9345 L 434.3237,807.4978 C 434.0226,807.1967 433.7331,807.0304 433.1978,807.0304 C 432.4983,807.0304 431.8275,807.35 431.8275,808.5499 C 431.8275,809.5156 432.3513,810.0623 433.1185,810.0623 C 433.9434,810.0623 434.4092,809.4593 434.4092,808.6459 L 434.4092,808.3166 L 432.556,808.3166" style="fill:#000000;fill-opacity:1;fill-rule:nonzero;stroke:none" id="path175"/>
            <path d="M 436.7021,809.2208 C 436.588,809.3343 436.4908,809.3969 436.309,809.3969 C 436.0818,809.3969 435.8309,809.226 435.8309,808.851 L 435.8309,807.0648 L 435.0919,807.0648 L 435.0919,810.0281 L 435.8138,810.0281 L 435.8138,809.7437 C 435.9564,809.9145 436.2412,810.0623 436.5594,810.0623 C 436.8487,810.0623 437.0542,809.9875 437.2589,809.7833 L 436.7021,809.2208" style="fill:#000000;fill-opacity:1;fill-rule:nonzero;stroke:none" id="path177"/>
            <path d="M 439.1244,808.3166 L 438.5381,808.3166 C 438.2705,808.3166 438.1235,808.1907 438.1235,807.9812 C 438.1235,807.776 438.2599,807.6387 438.55,807.6387 C 438.7547,807.6387 438.8854,807.6572 439.0161,807.7814 C 439.0954,807.8553 439.1244,807.975 439.1244,808.1564 L 439.1244,808.3166 z M 439.1412,807.0648 L 439.1412,807.3209 C 438.9422,807.1228 438.7547,807.0356 438.4131,807.0356 C 438.0777,807.0356 437.8334,807.1228 437.6564,807.298 C 437.4979,807.4626 437.4121,807.7012 437.4121,807.9636 C 437.4121,808.4363 437.7361,808.822 438.4245,808.822 L 439.1244,808.822 L 439.1244,808.9707 C 439.1244,809.2947 438.9647,809.4373 438.5724,809.4373 C 438.2885,809.4373 438.1569,809.3686 438.0038,809.1926 L 437.5314,809.653 C 437.8215,809.9708 438.1062,810.0623 438.6006,810.0623 C 439.4316,810.0623 439.8635,809.7102 439.8635,809.0156 L 439.8635,807.0648 L 439.1412,807.0648" style="fill:#000000;fill-opacity:1;fill-rule:nonzero;stroke:none" id="path179"/>
            <path d="M 441.5864,807.0648 C 440.9842,807.0648 440.728,807.4917 440.728,807.9125 L 440.728,809.3801 L 440.4151,809.3801 L 440.4151,809.9435 L 440.728,809.9435 L 440.728,810.8186 L 441.467,810.8186 L 441.467,809.9435 L 441.99,809.9435 L 441.99,809.3801 L 441.467,809.3801 L 441.467,807.9583 C 441.467,807.7875 441.5463,807.6907 441.7232,807.6907 L 441.99,807.6907 L 441.99,807.0648 L 441.5864,807.0648" style="fill:#000000;fill-opacity:1;fill-rule:nonzero;stroke:none" id="path181"/>
            <path d="M 443.4008,807.0648 L 442.6617,807.0648 L 442.6617,810.0281 L 443.4008,810.0281 L 443.4008,807.0648 z M 442.6499,810.5352 L 442.6499,811.1373 L 443.4065,811.1373 L 443.4065,810.5352 L 442.6499,810.5352" style="fill:#000000;fill-opacity:1;fill-rule:nonzero;stroke:none" id="path183"/>
            <path d="M 445.6981,809.2665 C 445.6132,809.351 445.4996,809.3969 445.3517,809.3969 C 445.2039,809.3969 445.0959,809.351 445.0101,809.2665 C 444.8569,809.1124 444.8398,808.8563 444.8398,808.5499 C 444.8398,808.2435 444.8569,807.9812 445.0101,807.8271 C 445.0959,807.7417 445.2039,807.6959 445.3517,807.6959 C 445.4996,807.6959 445.6132,807.7417 445.6981,807.8271 C 445.8513,807.9812 445.8694,808.2435 445.8694,808.5499 C 445.8694,808.8563 445.8513,809.1124 445.6981,809.2665 z M 446.2721,807.3949 C 446.0908,807.202 445.7897,807.0304 445.3517,807.0304 C 444.9138,807.0304 444.618,807.202 444.4357,807.3949 C 444.1689,807.6731 444.1003,808.0093 444.1003,808.5499 C 444.1003,809.0834 444.1689,809.4205 444.4357,809.6978 C 444.618,809.8916 444.9138,810.0623 445.3517,810.0623 C 445.7897,810.0623 446.0908,809.8916 446.2721,809.6978 C 446.5398,809.4205 446.6085,809.0834 446.6085,808.5499 C 446.6085,808.0093 446.5398,807.6731 446.2721,807.3949" style="fill:#000000;fill-opacity:1;fill-rule:nonzero;stroke:none" id="path185"/>
            <path d="M 449.0369,807.0648 L 449.0369,808.8563 C 449.0369,809.2603 448.7804,809.3969 448.5475,809.3969 C 448.3142,809.3969 448.0527,809.2603 448.0527,808.8563 L 448.0527,807.0648 L 447.3136,807.0648 L 447.3136,810.0281 L 448.0356,810.0281 L 448.0356,809.7551 C 448.2292,809.9594 448.5017,810.0623 448.7746,810.0623 C 449.0704,810.0623 449.3094,809.9646 449.4745,809.8009 C 449.713,809.5615 449.7764,809.2823 449.7764,808.9601 L 449.7764,807.0648 L 449.0369,807.0648" style="fill:#000000;fill-opacity:1;fill-rule:nonzero;stroke:none" id="path187"/>
            <path d="M 452.7217,809.3801 L 452.7217,807.0648 L 451.9822,807.0648 L 451.9822,809.3801 L 451.6759,809.3801 L 451.6759,809.9435 L 451.9822,809.9435 L 451.9822,810.3133 C 451.9822,810.7332 452.2446,811.1592 452.8468,811.1592 L 453.268,811.1592 L 453.268,810.5352 L 452.9775,810.5352 C 452.8019,810.5352 452.7217,810.4374 452.7217,810.2666 L 452.7217,809.9435 L 453.268,809.9435 L 453.268,809.3801 L 452.7217,809.3801" style="fill:#000000;fill-opacity:1;fill-rule:nonzero;stroke:none" id="path189"/>
            <path d="M 455.446,809.2208 C 455.332,809.3343 455.2357,809.3969 455.0538,809.3969 C 454.8267,809.3969 454.5758,809.226 454.5758,808.851 L 454.5758,807.0648 L 453.8367,807.0648 L 453.8367,810.0281 L 454.5586,810.0281 L 454.5586,809.7437 C 454.7012,809.9145 454.9852,810.0623 455.3034,810.0623 C 455.5935,810.0623 455.7991,809.9875 456.0037,809.7833 L 455.446,809.2208" style="fill:#000000;fill-opacity:1;fill-rule:nonzero;stroke:none" id="path191"/>
            <path d="M 457.8684,808.3166 L 457.283,808.3166 C 457.0153,808.3166 456.8675,808.1907 456.8675,807.9812 C 456.8675,807.776 457.0048,807.6387 457.2939,807.6387 C 457.4995,807.6387 457.6294,807.6572 457.761,807.7814 C 457.8403,807.8553 457.8684,807.975 457.8684,808.1564 L 457.8684,808.3166 z M 457.886,807.0648 L 457.886,807.3209 C 457.6862,807.1228 457.4995,807.0356 457.1579,807.0356 C 456.8226,807.0356 456.5782,807.1228 456.4013,807.298 C 456.2428,807.4626 456.157,807.7012 456.157,807.9636 C 456.157,808.4363 456.481,808.822 457.1685,808.822 L 457.8684,808.822 L 457.8684,808.9707 C 457.8684,809.2947 457.7094,809.4373 457.3173,809.4373 C 457.0325,809.4373 456.9017,809.3686 456.7485,809.1926 L 456.2762,809.653 C 456.5663,809.9708 456.8502,810.0623 457.3454,810.0623 C 458.1756,810.0623 458.6074,809.7102 458.6074,809.0156 L 458.6074,807.0648 L 457.886,807.0648" style="fill:#000000;fill-opacity:1;fill-rule:nonzero;stroke:none" id="path193"/>
            <path d="M 461.1271,807.0648 L 461.1271,808.8563 C 461.1271,809.2603 460.8722,809.3969 460.6385,809.3969 C 460.4052,809.3969 460.1437,809.2603 460.1437,808.8563 L 460.1437,807.0648 L 459.4042,807.0648 L 459.4042,810.0281 L 460.1266,810.0281 L 460.1266,809.7551 C 460.3194,809.9594 460.5927,810.0623 460.8656,810.0623 C 461.1614,810.0623 461.4005,809.9646 461.5651,809.8009 C 461.8041,809.5615 461.8662,809.2823 461.8662,808.9601 L 461.8662,807.0648 L 461.1271,807.0648" style="fill:#000000;fill-opacity:1;fill-rule:nonzero;stroke:none" id="path195"/>
            <path d="M 464.0957,806.724 L 463.5503,806.724 L 463.1581,805.8938 L 463.8461,805.8938 L 464.0957,806.724 z M 464.8189,807.4354 L 464.3184,807.9292 C 464.1644,807.7646 464.0337,807.6959 463.8408,807.6959 C 463.6638,807.6959 463.527,807.7593 463.4196,807.8896 C 463.3051,808.0322 463.2545,808.2365 463.2545,808.5499 C 463.2545,808.8615 463.3051,809.0605 463.4196,809.204 C 463.527,809.3343 463.6638,809.3969 463.8408,809.3969 C 464.0337,809.3969 464.1644,809.3281 464.3184,809.1644 L 464.8189,809.6644 C 464.5566,809.9374 464.2498,810.0623 463.8408,810.0623 C 463.2484,810.0623 462.5154,809.749 462.5154,808.5499 C 462.5154,807.35 463.2484,807.0304 463.8408,807.0304 C 464.2498,807.0304 464.5566,807.1616 464.8189,807.4354" style="fill:#000000;fill-opacity:1;fill-rule:nonzero;stroke:none" id="path197"/>
            <path d="M 466.8825,808.3166 L 466.2961,808.3166 C 466.0286,808.3166 465.8806,808.1907 465.8806,807.9812 C 465.8806,807.776 466.0179,807.6387 466.3071,807.6387 C 466.5119,807.6387 466.6435,807.6572 466.7742,807.7814 C 466.8535,807.8553 466.8825,807.975 466.8825,808.1564 L 466.8825,808.3166 z M 466.8993,807.0648 L 466.8993,807.3209 C 466.7003,807.1228 466.5119,807.0356 466.1712,807.0356 C 465.8358,807.0356 465.5914,807.1228 465.4145,807.298 C 465.2552,807.4626 465.1702,807.7012 465.1702,807.9636 C 465.1702,808.4363 465.4942,808.822 466.1826,808.822 L 466.8825,808.822 L 466.8825,808.9707 C 466.8825,809.2947 466.7227,809.4373 466.3305,809.4373 C 466.0466,809.4373 465.915,809.3686 465.7618,809.1926 L 465.2894,809.653 C 465.5795,809.9708 465.8643,810.0623 466.3587,810.0623 C 467.1898,810.0623 467.6216,809.7102 467.6216,809.0156 L 467.6216,807.0648 L 466.8993,807.0648" style="fill:#000000;fill-opacity:1;fill-rule:nonzero;stroke:none" id="path199"/>
            <path d="M 469.157,807.0648 L 468.4175,807.0648 L 468.4175,810.0281 L 469.157,810.0281 L 469.157,807.0648 z M 468.406,810.5352 L 468.406,811.1373 L 469.1622,811.1373 L 469.1622,810.5352 L 468.406,810.5352" style="fill:#000000;fill-opacity:1;fill-rule:nonzero;stroke:none" id="path201"/>
            <path d="M 470.9542,807.0304 C 470.4872,807.0304 470.0664,807.0823 469.6914,807.4573 L 470.1747,807.9398 C 470.419,807.6959 470.7381,807.6624 470.9652,807.6624 C 471.2209,807.6624 471.4882,807.747 471.4882,807.9689 C 471.4882,808.1176 471.4084,808.2197 471.1761,808.2435 L 470.7091,808.2885 C 470.1747,808.3386 469.8445,808.5719 469.8445,809.1187 C 469.8445,809.7314 470.3855,810.0623 470.9876,810.0623 C 471.4486,810.0623 471.8351,809.9822 472.1198,809.7155 L 471.6647,809.255 C 471.4944,809.4091 471.2328,809.454 470.9771,809.454 C 470.6813,809.454 470.5558,809.3167 470.5558,809.1697 C 470.5558,809.0605 470.6012,808.9363 470.8622,808.9135 L 471.3292,808.8677 C 471.9156,808.8113 472.211,808.4988 472.211,807.9979 C 472.211,807.3447 471.6541,807.0304 470.9542,807.0304" style="fill:#000000;fill-opacity:1;fill-rule:nonzero;stroke:none" id="path203"/>
            <path d="M 474.4683,809.1406 C 474.389,809.3167 474.2239,809.4479 473.9735,809.4479 C 473.7239,809.4479 473.5588,809.3167 473.4796,809.1406 C 473.4333,809.0331 473.4162,808.9531 473.4109,808.822 L 474.5369,808.822 C 474.5316,808.9531 474.5145,809.0331 474.4683,809.1406 z M 473.4109,808.3166 C 473.4109,807.9345 473.6446,807.6572 474.0593,807.6572 C 474.3837,807.6572 474.5422,807.747 474.7306,807.9345 L 475.1795,807.4978 C 474.8776,807.1967 474.5884,807.0304 474.0536,807.0304 C 473.3541,807.0304 472.6833,807.35 472.6833,808.5499 C 472.6833,809.5156 473.2062,810.0623 473.9735,810.0623 C 474.7984,810.0623 475.2645,809.4593 475.2645,808.6459 L 475.2645,808.3166 L 473.4109,808.3166" style="fill:#000000;fill-opacity:1;fill-rule:nonzero;stroke:none" id="path205"/>
            <path d="M 478.3819,809.3969 C 477.9382,809.3969 477.8814,809.0331 477.8814,808.5499 C 477.8814,808.0666 477.9382,807.6959 478.3819,807.6959 C 478.8243,807.6959 478.8877,808.0666 478.8877,808.5499 C 478.8877,809.0331 478.8243,809.3969 478.3819,809.3969 z M 478.9049,807.0648 L 478.9049,807.3447 C 478.7002,807.1175 478.4836,807.0304 478.1711,807.0304 C 477.8814,807.0304 477.6076,807.1343 477.4426,807.298 C 477.1468,807.5947 477.1415,808.1061 477.1415,808.5499 C 477.1415,808.9936 477.1468,809.4998 477.4426,809.7947 C 477.6076,809.9594 477.8753,810.0623 478.1654,810.0623 C 478.4664,810.0623 478.6936,809.9822 478.8877,809.7665 L 478.8877,811.1135 L 479.6268,811.1135 L 479.6268,807.0648 L 478.9049,807.0648" style="fill:#000000;fill-opacity:1;fill-rule:nonzero;stroke:none" id="path207"/>
            <path d="M 482.0953,809.1406 C 482.0153,809.3167 481.8506,809.4479 481.5997,809.4479 C 481.3497,809.4479 481.1859,809.3167 481.1049,809.1406 C 481.0591,809.0331 481.0415,808.9531 481.0362,808.822 L 482.164,808.822 C 482.157,808.9531 482.1402,809.0331 482.0953,809.1406 z M 481.0362,808.3166 C 481.0362,807.9345 481.2695,807.6572 481.6859,807.6572 C 482.0099,807.6572 482.1693,807.747 482.3568,807.9345 L 482.8058,807.4978 C 482.5047,807.1967 482.2142,807.0304 481.6789,807.0304 C 480.9799,807.0304 480.3091,807.35 480.3091,808.5499 C 480.3091,809.5156 480.832,810.0623 481.5997,810.0623 C 482.4237,810.0623 482.8903,809.4593 482.8903,808.6459 L 482.8903,808.3166 L 481.0362,808.3166" style="fill:#000000;fill-opacity:1;fill-rule:nonzero;stroke:none" id="path209"/>
            <path d="M 484.5463,807.0304 C 484.0797,807.0304 483.6588,807.0823 483.2829,807.4573 L 483.7671,807.9398 C 484.011,807.6959 484.3297,807.6624 484.5577,807.6624 C 484.814,807.6624 485.0815,807.747 485.0815,807.9689 C 485.0815,808.1176 485.0015,808.2197 484.7682,808.2435 L 484.3006,808.2885 C 483.7671,808.3386 483.4379,808.5719 483.4379,809.1187 C 483.4379,809.7314 483.9775,810.0623 484.5806,810.0623 C 485.041,810.0623 485.4266,809.9822 485.7119,809.7155 L 485.2576,809.255 C 485.0868,809.4091 484.8245,809.454 484.5692,809.454 C 484.2733,809.454 484.1484,809.3167 484.1484,809.1697 C 484.1484,809.0605 484.1942,808.9363 484.4556,808.9135 L 484.9204,808.8677 C 485.5077,808.8113 485.8026,808.4988 485.8026,807.9979 C 485.8026,807.3447 485.2462,807.0304 484.5463,807.0304" style="fill:#000000;fill-opacity:1;fill-rule:nonzero;stroke:none" id="path211"/>
            <path d="M 488.9191,807.0304 C 488.3284,807.0304 487.595,807.35 487.595,808.5499 C 487.595,809.749 488.3284,810.0623 488.9191,810.0623 C 489.3285,810.0623 489.6357,809.9374 489.8972,809.6644 L 489.3971,809.1644 C 489.2439,809.3281 489.1136,809.3969 488.9191,809.3969 C 488.7439,809.3969 488.6066,809.3343 488.4992,809.204 C 488.3847,809.0605 488.3337,808.8615 488.3337,808.5499 C 488.3337,808.2365 488.3847,808.0322 488.4992,807.8896 C 488.6066,807.7593 488.7439,807.6959 488.9191,807.6959 C 489.1136,807.6959 489.2439,807.7646 489.3971,807.9292 L 489.8972,807.4354 C 489.6357,807.1616 489.3285,807.0304 488.9191,807.0304" style="fill:#000000;fill-opacity:1;fill-rule:nonzero;stroke:none" id="path213"/>
            <path d="M 491.7285,807.0648 L 491.7285,807.6907 L 491.4455,807.6907 C 491.2589,807.6907 491.184,807.7814 491.184,807.9583 L 491.184,811.1135 L 490.443,811.1135 L 490.443,807.9125 C 490.443,807.4917 490.7001,807.0648 491.3084,807.0648 L 491.7285,807.0648" style="fill:#000000;fill-opacity:1;fill-rule:nonzero;stroke:none" id="path215"/>
            <path d="M 494.0265,807.0648 L 494.0265,807.3376 C 493.8336,807.1343 493.5604,807.0304 493.289,807.0304 C 492.9924,807.0304 492.7527,807.1281 492.5877,807.2927 C 492.3497,807.5322 492.2857,807.8104 492.2857,808.1344 L 492.2857,810.0281 L 493.0267,810.0281 L 493.0267,808.2365 C 493.0267,807.8342 493.2827,807.6959 493.5162,807.6959 C 493.7479,807.6959 494.0103,807.8342 494.0103,808.2365 L 494.0103,810.0281 L 494.7495,810.0281 L 494.7495,807.0648 L 494.0265,807.0648" style="fill:#000000;fill-opacity:1;fill-rule:nonzero;stroke:none" id="path217"/>
            <path d="M 496.8193,809.3969 C 496.3758,809.3969 496.3181,809.0331 496.3181,808.5499 C 496.3181,808.0666 496.3758,807.6959 496.8193,807.6959 C 497.2637,807.6959 497.3196,808.0666 497.3196,808.5499 C 497.3196,809.0331 497.2637,809.3969 496.8193,809.3969 z M 497.7578,807.298 C 497.5928,807.1343 497.3251,807.0304 497.0366,807.0304 C 496.7228,807.0304 496.5011,807.1175 496.2974,807.3447 L 496.2974,807.0648 L 495.5807,807.0648 L 495.5807,811.1135 L 496.3181,811.1135 L 496.3181,809.7665 C 496.5137,809.9822 496.7355,810.0623 497.0366,810.0623 C 497.3251,810.0623 497.5928,809.9594 497.7578,809.7947 C 498.0544,809.4998 498.0598,808.9936 498.0598,808.5499 C 498.0598,808.1061 498.0544,807.5947 497.7578,807.298" style="fill:#000000;fill-opacity:1;fill-rule:nonzero;stroke:none" id="path219"/>
            <path d="M 499.7375,807.0304 C 499.2705,807.0304 498.8504,807.0823 498.4745,807.4573 L 498.9586,807.9398 C 499.202,807.6959 499.5211,807.6624 499.7483,807.6624 C 500.0052,807.6624 500.2712,807.747 500.2712,807.9689 C 500.2712,808.1176 500.1927,808.2197 499.9592,808.2435 L 499.4932,808.2885 C 498.9586,808.3386 498.6286,808.5719 498.6286,809.1187 C 498.6286,809.7314 499.1677,810.0623 499.7708,810.0623 C 500.2324,810.0623 500.6191,809.9822 500.9022,809.7155 L 500.447,809.255 C 500.2775,809.4091 500.016,809.454 499.7591,809.454 C 499.4643,809.454 499.339,809.3167 499.339,809.1697 C 499.339,809.0605 499.3832,808.9363 499.6455,808.9135 L 500.1116,808.8677 C 500.6976,808.8113 500.9941,808.4988 500.9941,807.9979 C 500.9941,807.3447 500.4361,807.0304 499.7375,807.0304" style="fill:#000000;fill-opacity:1;fill-rule:nonzero;stroke:none" id="path221"/>
            <path d="M 504.4343,808.3166 L 503.8501,808.3166 C 503.5824,808.3166 503.4345,808.1907 503.4345,807.9812 C 503.4345,807.776 503.5698,807.6387 503.8591,807.6387 C 504.0656,807.6387 504.1954,807.6572 504.327,807.7814 C 504.4063,807.8553 504.4343,807.975 504.4343,808.1564 L 504.4343,808.3166 z M 504.4523,807.0648 L 504.4523,807.3209 C 504.2531,807.1228 504.0656,807.0356 503.7239,807.0356 C 503.3895,807.0356 503.1433,807.1228 502.9666,807.298 C 502.8071,807.4626 502.7232,807.7012 502.7232,807.9636 C 502.7232,808.4363 503.046,808.822 503.7356,808.822 L 504.4343,808.822 L 504.4343,808.9707 C 504.4343,809.2947 504.2756,809.4373 503.8835,809.4373 C 503.5986,809.4373 503.4679,809.3686 503.3146,809.1926 L 502.8413,809.653 C 503.1334,809.9708 503.4156,810.0623 503.9114,810.0623 C 504.7417,810.0623 505.1735,809.7102 505.1735,809.0156 L 505.1735,807.0648 L 504.4523,807.0648" style="fill:#000000;fill-opacity:1;fill-rule:nonzero;stroke:none" id="path223"/>
            <path d="M 506.8062,807.0648 C 506.1976,807.0648 505.9416,807.4917 505.9416,807.9125 L 505.9416,811.1135 L 506.6808,811.1135 L 506.6808,807.9583 C 506.6808,807.7814 506.7548,807.6907 506.9423,807.6907 L 507.2271,807.6907 L 507.2271,807.0648 L 506.8062,807.0648" style="fill:#000000;fill-opacity:1;fill-rule:nonzero;stroke:none" id="path225"/>
            <path d="M 509.059,809.3969 C 508.6154,809.3969 508.5568,809.0331 508.5568,808.5499 C 508.5568,808.0666 508.6154,807.6959 509.059,807.6959 C 509.5016,807.6959 509.5584,808.0666 509.5584,808.5499 C 509.5584,809.0331 509.5016,809.3969 509.059,809.3969 z M 509.9974,807.298 C 509.8316,807.1343 509.5638,807.0304 509.2735,807.0304 C 508.9724,807.0304 508.7498,807.1105 508.5568,807.3271 L 508.5568,805.9791 L 507.8194,805.9791 L 507.8194,810.0281 L 508.5352,810.0281 L 508.5352,809.749 C 508.7399,809.9769 508.9616,810.0623 509.2735,810.0623 C 509.5638,810.0623 509.8316,809.9594 509.9974,809.7947 C 510.2922,809.4998 510.2985,808.9936 510.2985,808.5499 C 510.2985,808.1061 510.2922,807.5947 509.9974,807.298" style="fill:#000000;fill-opacity:1;fill-rule:nonzero;stroke:none" id="path227"/>
            <path d="M 511.7419,807.0648 L 511.0026,807.0648 L 511.0026,810.0281 L 511.7419,810.0281 L 511.7419,807.0648 z M 510.9918,810.5352 L 510.9918,811.1373 L 511.7473,811.1373 L 511.7473,810.5352 L 510.9918,810.5352" style="fill:#000000;fill-opacity:1;fill-rule:nonzero;stroke:none" id="path229"/>
            <path d="M 514.2904,807.0648 L 514.2904,808.8563 C 514.2904,809.2603 514.0334,809.3969 513.8018,809.3969 C 513.5683,809.3969 513.3068,809.2603 513.3068,808.8563 L 513.3068,807.0648 L 512.5667,807.0648 L 512.5667,810.0281 L 513.2888,810.0281 L 513.2888,809.7551 C 513.4818,809.9594 513.7567,810.0623 514.0289,810.0623 C 514.3256,810.0623 514.5635,809.9646 514.7285,809.8009 C 514.9674,809.5615 515.0305,809.2823 515.0305,808.9601 L 515.0305,807.0648 L 514.2904,807.0648" style="fill:#000000;fill-opacity:1;fill-rule:nonzero;stroke:none" id="path231"/>
            <path d="M 516.7983,807.0304 C 516.3314,807.0304 515.9104,807.0823 515.5353,807.4573 L 516.0195,807.9398 C 516.2638,807.6959 516.5829,807.6624 516.8101,807.6624 C 517.0661,807.6624 517.3339,807.747 517.3339,807.9689 C 517.3339,808.1176 517.2536,808.2197 517.0192,808.2435 L 516.5532,808.2885 C 516.0195,808.3386 515.6886,808.5719 515.6886,809.1187 C 515.6886,809.7314 516.2304,810.0623 516.8335,810.0623 C 517.2933,810.0623 517.6791,809.9822 517.9649,809.7155 L 517.5096,809.255 C 517.3375,809.4091 517.0769,809.454 516.8209,809.454 C 516.5252,809.454 516.3999,809.3167 516.3999,809.1697 C 516.3999,809.0605 516.4449,808.9363 516.7073,808.9135 L 517.1743,808.8677 C 517.7593,808.8113 518.0541,808.4988 518.0541,807.9979 C 518.0541,807.3447 517.497,807.0304 516.7983,807.0304" style="fill:#000000;fill-opacity:1;fill-rule:nonzero;stroke:none" id="path233"/>
            <path d="M 521.6322,809.1406 C 521.5529,809.3167 521.3879,809.4479 521.1373,809.4479 C 520.8867,809.4479 520.7226,809.3167 520.6432,809.1406 C 520.5982,809.0331 520.5801,808.9531 520.5739,808.822 L 521.6998,808.822 C 521.6944,808.9531 521.6791,809.0331 521.6322,809.1406 z M 520.5739,808.3166 C 520.5739,807.9345 520.8073,807.6572 521.222,807.6572 C 521.5466,807.6572 521.7061,807.747 521.8936,807.9345 L 522.3435,807.4978 C 522.0406,807.1967 521.7521,807.0304 521.2175,807.0304 C 520.5189,807.0304 519.8472,807.35 519.8472,808.5499 C 519.8472,809.5156 520.3701,810.0623 521.1373,810.0623 C 521.9622,810.0623 522.4282,809.4593 522.4282,808.6459 L 522.4282,808.3166 L 520.5739,808.3166" style="fill:#000000;fill-opacity:1;fill-rule:nonzero;stroke:none" id="path235"/>
            <path d="M 524.0374,807.0648 C 523.4343,807.0648 523.1783,807.4917 523.1783,807.9125 L 523.1783,809.3801 L 522.8663,809.3801 L 522.8663,809.9435 L 523.1783,809.9435 L 523.1783,810.8186 L 523.9184,810.8186 L 523.9184,809.9435 L 524.4413,809.9435 L 524.4413,809.3801 L 523.9184,809.3801 L 523.9184,807.9583 C 523.9184,807.7875 523.9977,807.6907 524.1744,807.6907 L 524.4413,807.6907 L 524.4413,807.0648 L 524.0374,807.0648" style="fill:#000000;fill-opacity:1;fill-rule:nonzero;stroke:none" id="path237"/>
            <path d="M 527.5469,809.3969 C 527.1034,809.3969 527.0457,809.0331 527.0457,808.5499 C 527.0457,808.0666 527.1034,807.6959 527.5469,807.6959 C 527.9905,807.6959 528.0527,808.0666 528.0527,808.5499 C 528.0527,809.0331 527.9905,809.3969 527.5469,809.3969 z M 528.0707,807.0648 L 528.0707,807.3447 C 527.8643,807.1175 527.6488,807.0304 527.336,807.0304 C 527.0457,807.0304 526.7734,807.1343 526.6085,807.298 C 526.3137,807.5947 526.3074,808.1061 526.3074,808.5499 C 526.3074,808.9936 526.3137,809.4998 526.6085,809.7947 C 526.7734,809.9594 527.0412,810.0623 527.3306,810.0623 C 527.6317,810.0623 527.8589,809.9822 528.0527,809.7665 L 528.0527,811.1135 L 528.7928,811.1135 L 528.7928,807.0648 L 528.0707,807.0648" style="fill:#000000;fill-opacity:1;fill-rule:nonzero;stroke:none" id="path239"/>
            <path d="M 531.2611,809.1406 C 531.1809,809.3167 531.0159,809.4479 530.7653,809.4479 C 530.5156,809.4479 530.3506,809.3167 530.2704,809.1406 C 530.2253,809.0331 530.2091,808.9531 530.2037,808.822 L 531.3287,808.822 C 531.3224,808.9531 531.3062,809.0331 531.2611,809.1406 z M 530.2037,808.3166 C 530.2037,807.9345 530.4363,807.6572 530.8518,807.6572 C 531.1746,807.6572 531.335,807.747 531.5226,807.9345 L 531.9715,807.4978 C 531.6704,807.1967 531.381,807.0304 530.8455,807.0304 C 530.1451,807.0304 529.4744,807.35 529.4744,808.5499 C 529.4744,809.5156 529.9981,810.0623 530.7653,810.0623 C 531.5901,810.0623 532.058,809.4593 532.058,808.6459 L 532.058,808.3166 L 530.2037,808.3166" style="fill:#000000;fill-opacity:1;fill-rule:nonzero;stroke:none" id="path241"/>
            <path d="M 537.5058,807.0648 L 537.5058,808.8563 C 537.5058,809.2603 537.2489,809.3969 537.0163,809.3969 C 536.7891,809.3969 536.5223,809.2603 536.5223,808.873 L 536.5223,807.0648 L 535.7813,807.0648 L 535.7813,808.8563 C 535.7813,809.2603 535.5252,809.3969 535.2917,809.3969 C 535.0601,809.3969 534.7986,809.2603 534.7986,808.8563 L 534.7986,807.0648 L 534.0585,807.0648 L 534.0585,810.0281 L 534.7806,810.0281 L 534.7806,809.7551 C 534.9735,809.954 535.2485,810.0623 535.5198,810.0623 C 535.8506,810.0623 536.1175,809.9435 536.305,809.6873 C 536.5557,809.9488 536.8234,810.0623 537.193,810.0623 C 537.4878,810.0623 537.7564,809.9646 537.9205,809.8009 C 538.1585,809.5615 538.2451,809.2823 538.2451,808.9601 L 538.2451,807.0648 L 537.5058,807.0648" style="fill:#000000;fill-opacity:1;fill-rule:nonzero;stroke:none" id="path243"/>
            <path d="M 540.5132,809.2665 C 540.4294,809.351 540.3149,809.3969 540.1671,809.3969 C 540.0192,809.3969 539.911,809.351 539.8263,809.2665 C 539.6721,809.1124 539.6541,808.8563 539.6541,808.5499 C 539.6541,808.2435 539.6721,807.9812 539.8263,807.8271 C 539.911,807.7417 540.0192,807.6959 540.1671,807.6959 C 540.3149,807.6959 540.4294,807.7417 540.5132,807.8271 C 540.6664,807.9812 540.6836,808.2435 540.6836,808.5499 C 540.6836,808.8563 540.6664,809.1124 540.5132,809.2665 z M 541.0875,807.3949 C 540.9054,807.202 540.6042,807.0304 540.1671,807.0304 C 539.7289,807.0304 539.4323,807.202 539.2502,807.3949 C 538.9834,807.6731 538.9158,808.0093 538.9158,808.5499 C 538.9158,809.0834 538.9834,809.4205 539.2502,809.6978 C 539.4323,809.8916 539.7289,810.0623 540.1671,810.0623 C 540.6042,810.0623 540.9054,809.8916 541.0875,809.6978 C 541.3543,809.4205 541.4237,809.0834 541.4237,808.5499 C 541.4237,808.0093 541.3543,807.6731 541.0875,807.3949" style="fill:#000000;fill-opacity:1;fill-rule:nonzero;stroke:none" id="path245"/>
            <path d="M 543.8533,807.0648 L 543.8533,808.8563 C 543.8533,809.2603 543.5955,809.3969 543.3638,809.3969 C 543.1302,809.3969 542.8679,809.2603 542.8679,808.8563 L 542.8679,807.0648 L 542.1287,807.0648 L 542.1287,810.0281 L 542.8499,810.0281 L 542.8499,809.7551 C 543.0446,809.9594 543.3177,810.0623 543.5909,810.0623 C 543.8866,810.0623 544.1246,809.9646 544.2896,809.8009 C 544.5294,809.5615 544.5916,809.2823 544.5916,808.9601 L 544.5916,807.0648 L 543.8533,807.0648" style="fill:#000000;fill-opacity:1;fill-rule:nonzero;stroke:none" id="path247"/>
            <path d="M 546.3143,807.0648 C 545.7103,807.0648 545.4561,807.4917 545.4561,807.9125 L 545.4561,809.3801 L 545.1425,809.3801 L 545.1425,809.9435 L 545.4561,809.9435 L 545.4561,810.8186 L 546.1945,810.8186 L 546.1945,809.9435 L 546.7183,809.9435 L 546.7183,809.3801 L 546.1945,809.3801 L 546.1945,807.9583 C 546.1945,807.7875 546.2738,807.6907 546.4505,807.6907 L 546.7183,807.6907 L 546.7183,807.0648 L 546.3143,807.0648" style="fill:#000000;fill-opacity:1;fill-rule:nonzero;stroke:none" id="path249"/>
            <path d="M 548.8737,808.3166 L 548.2877,808.3166 C 548.02,808.3166 547.8722,808.1907 547.8722,807.9812 C 547.8722,807.776 548.0083,807.6387 548.2977,807.6387 C 548.5032,807.6387 548.6339,807.6572 548.7656,807.7814 C 548.8448,807.8553 548.8737,807.975 548.8737,808.1564 L 548.8737,808.3166 z M 548.89,807.0648 L 548.89,807.3209 C 548.6907,807.1228 548.5032,807.0356 548.1625,807.0356 C 547.8271,807.0356 547.581,807.1228 547.4043,807.298 C 547.2456,807.4626 547.1609,807.7012 547.1609,807.9636 C 547.1609,808.4363 547.4854,808.822 548.1742,808.822 L 548.8737,808.822 L 548.8737,808.9707 C 548.8737,809.2947 548.7133,809.4373 548.3211,809.4373 C 548.0363,809.4373 547.9064,809.3686 547.7523,809.1926 L 547.2799,809.653 C 547.571,809.9708 547.855,810.0623 548.35,810.0623 C 549.1802,810.0623 549.6111,809.7102 549.6111,809.0156 L 549.6111,807.0648 L 548.89,807.0648" style="fill:#000000;fill-opacity:1;fill-rule:nonzero;stroke:none" id="path251"/>
            <path d="M 551.507,809.3969 C 551.068,809.3969 551.0229,809.0209 551.0229,808.6291 C 551.0229,808.2365 551.068,807.8553 551.507,807.8553 C 551.9434,807.8553 551.9948,808.2365 551.9948,808.6291 C 551.9948,809.0209 551.9434,809.3969 551.507,809.3969 z M 551.4322,805.9449 C 550.9769,805.9449 550.6641,806.0356 550.3567,806.3314 L 550.8174,806.7971 C 550.9823,806.6386 551.1473,806.5699 551.3988,806.5699 C 551.8423,806.5699 551.9948,806.8834 551.9948,807.1844 L 551.9948,807.4855 C 551.8009,807.2698 551.58,807.1906 551.2906,807.1906 C 550.9995,807.1906 550.7488,807.2865 550.5848,807.452 C 550.3062,807.7302 550.2819,808.1115 550.2819,808.6291 C 550.2819,809.1467 550.3062,809.5218 550.5848,809.8009 C 550.7488,809.9646 551.0049,810.0623 551.2952,810.0623 C 551.608,810.0623 551.8135,809.9769 552.0173,809.749 L 552.0173,810.0281 L 552.7339,810.0281 L 552.7339,807.173 C 552.7339,806.4625 552.2282,805.9449 551.4322,805.9449" style="fill:#000000;fill-opacity:1;fill-rule:nonzero;stroke:none" id="path253"/>
            <path d="M 555.2879,807.0648 L 555.2879,808.8563 C 555.2879,809.2603 555.0319,809.3969 554.7984,809.3969 C 554.5649,809.3969 554.3035,809.2603 554.3035,808.8563 L 554.3035,807.0648 L 553.5642,807.0648 L 553.5642,810.0281 L 554.2872,810.0281 L 554.2872,809.7551 C 554.4811,809.9594 554.7524,810.0623 555.0256,810.0623 C 555.3213,810.0623 555.561,809.9646 555.7251,809.8009 C 555.964,809.5615 556.0262,809.2823 556.0262,808.9601 L 556.0262,807.0648 L 555.2879,807.0648" style="fill:#000000;fill-opacity:1;fill-rule:nonzero;stroke:none" id="path255"/>
            <path d="M 558.4621,809.1406 C 558.3828,809.3167 558.2159,809.4479 557.9662,809.4479 C 557.7156,809.4479 557.5516,809.3167 557.4713,809.1406 C 557.4254,809.0331 557.4091,808.9531 557.4037,808.822 L 558.5297,808.822 C 558.5234,808.9531 558.5062,809.0331 558.4621,809.1406 z M 557.4037,808.3166 C 557.4037,807.9345 557.6372,807.6572 558.0519,807.6572 C 558.3765,807.6572 558.5351,807.747 558.7235,807.9345 L 559.1725,807.4978 C 558.8705,807.1967 558.5802,807.0304 558.0474,807.0304 C 557.346,807.0304 556.6744,807.35 556.6744,808.5499 C 556.6744,809.5156 557.1982,810.0623 557.9662,810.0623 C 558.7911,810.0623 559.2572,809.4593 559.2572,808.6459 L 559.2572,808.3166 L 557.4037,808.3166" style="fill:#000000;fill-opacity:1;fill-rule:nonzero;stroke:none" id="path257"/>
          </g>
        </g>
      </g>
    </g>
  </g>
</svg>