<?xml version="1.0" encoding="UTF-8" standalone="no"?>
<!-- Created with Inkscape (http://www.inkscape.org/) -->

<svg
   xmlns:dc="http://purl.org/dc/elements/1.1/"
   xmlns:cc="http://creativecommons.org/ns#"
   xmlns:rdf="http://www.w3.org/1999/02/22-rdf-syntax-ns#"
   xmlns:svg="http://www.w3.org/2000/svg"
   xmlns="http://www.w3.org/2000/svg"
   xmlns:sodipodi="http://sodipodi.sourceforge.net/DTD/sodipodi-0.dtd"
   xmlns:inkscape="http://www.inkscape.org/namespaces/inkscape"
   id="svg2"
   version="1.1"
   inkscape:version="0.48.5 r10040"
   width="107.63625"
   height="105.93346"
   sodipodi:docname="red-asterisk.svg"
   inkscape:export-filename="/home/crep/bloc/css/images/red-asterisk.png"
   inkscape:export-xdpi="10.033795"
   inkscape:export-ydpi="10.033795">
  <metadata
     id="metadata8">
    <rdf:RDF>
      <cc:Work
         rdf:about="">
        <dc:format>image/svg+xml</dc:format>
        <dc:type
           rdf:resource="http://purl.org/dc/dcmitype/StillImage" />
        <dc:title></dc:title>
      </cc:Work>
    </rdf:RDF>
  </metadata>
  <defs
     id="defs6" />
  <sodipodi:namedview
     pagecolor="#ffffff"
     bordercolor="#666666"
     borderopacity="1"
     objecttolerance="10"
     gridtolerance="10"
     guidetolerance="10"
     inkscape:pageopacity="0"
     inkscape:pageshadow="2"
     inkscape:window-width="1346"
     inkscape:window-height="798"
     id="namedview4"
     showgrid="false"
     inkscape:zoom="1.9666667"
     inkscape:cx="-45.304714"
     inkscape:cy="55.967363"
     inkscape:window-x="65"
     inkscape:window-y="34"
     inkscape:window-maximized="0"
     inkscape:current-layer="svg2"
     fit-margin-top="0"
     fit-margin-left="0"
     fit-margin-right="0"
     fit-margin-bottom="0" />
  <path
     style="fill:#a40000;opacity:0.5"
     d="m 22.847829,99.877523 c -4.675,-3.315569 -9.13559,-6.390669 -9.91241,-6.833549 -1.07147,-0.61088 1.70667,-4.51519 11.50915,-16.174614 7.10685,-8.453148 13.47182,-16.080685 14.14436,-16.950082 1.0891,-1.407871 -0.93487,-1.942201 -18.50915,-4.886428 C 9.2272091,53.214714 0.19952922,51.602744 0.01828922,51.450699 -0.41088078,51.090675 6.8465691,30.731268 7.7537091,29.750433 c 0.38129,-0.412261 8.5241299,2.400239 18.0951899,6.25 C 35.419969,39.850195 43.747589,43 44.354719,43 c 0.76754,0 0.41077,-6.322156 -1.17095,-20.75 C 41.932619,10.8375 40.895199,1.1625 40.878389,0.75 40.861589,0.3375 46.737379,0 53.935729,0 l 13.08789,0 -0.57854,3.7500005 C 66.126879,5.8125005 65.185659,14.25 64.353469,22.5 c -0.83218,8.25 -1.72514,16.2375 -1.98435,17.75 -0.3097,1.807108 -0.0346,2.75 0.8022,2.75 0.70042,0 9.10436,-3.149805 18.67543,-6.999567 9.57107,-3.849761 17.693663,-6.662261 18.050203,-6.25 0.804258,0.92995 8.103018,21.460541 7.725118,21.729886 -0.15083,0.107502 -9.049238,1.675885 -19.774241,3.485295 -10.725,1.80941 -19.63583,3.405683 -19.80183,3.547275 -0.16601,0.141589 5.79649,7.48399 13.25,16.316444 7.4535,8.832453 13.551833,16.499362 13.551833,17.037582 0,0.96091 -18.966453,14.574655 -19.436953,13.951465 -0.13221,-0.17511 -4.90663,-8.530876 -10.60983,-18.568375 C 59.097859,77.212501 54.116249,69 53.730809,69 c -0.38543,0 -5.35428,8.316236 -11.04188,18.480525 -5.68761,10.164288 -10.5661,18.468095 -10.8411,18.452915 -0.275,-0.0152 -4.325,-2.74034 -9,-6.055917 z"
     id="path2987"
     inkscape:connector-curvature="0"
     inkscape:export-filename="/home/crep/bloc/css/images/red-asterisk.png"
     inkscape:export-xdpi="10.195079"
     inkscape:export-ydpi="10.195079" />
</svg>
